<svg width="23" height="26" viewBox="0 0 23 26" fill="currentColor" xmlns="http://www.w3.org/2000/svg">
<path d="M20.9029 20.9969L2.1202 21C1.32315 21 0.64429 20.5173 0.298474 19.9568C-0.11443 19.288 -0.100853 18.479 0.351185 17.843L1.35829 16.6343C2.04113 15.8145 2.45324 14.8926 2.64332 13.8509C2.83659 12.7925 2.88691 11.7569 2.8885 10.6748C2.89489 6.93827 4.24941 4.25099 7.94477 2.78457C8.21312 1.92592 8.70669 1.20224 9.43985 0.669973C10.6826 -0.232143 12.3517 -0.22223 13.5817 0.693612C14.2965 1.22588 14.778 1.93812 15.044 2.78838C18.7186 4.22658 20.0883 6.96496 20.0979 10.6741C20.1003 11.7394 20.149 12.7574 20.3343 13.8014C20.5244 14.8743 20.9508 15.8237 21.656 16.6656L22.612 17.8071C23.1 18.3905 23.1136 19.2042 22.7318 19.8806C22.4108 20.4487 21.7431 20.9954 20.9013 20.9954L20.9029 20.9969Z" fill="#5C5C5C"/>
<path d="M15 23.2988C14.3143 24.9741 12.9706 25.9899 11.5242 25.9999C10.0646 26.0099 8.68929 24.9866 8.01611 23.3164C7.95228 23.1578 8.09112 23 8.20563 23L14.796 23.0017C14.921 23.0017 14.9941 23.0993 15 23.2988Z" fill="#5C5C5C"/>
</svg>
