<svg width="151" height="37" viewBox="0 0 151 37" fill="none" xmlns="http://www.w3.org/2000/svg">
<path d="M13.2789 35.4762C11.3616 36.1984 9.57436 37.0262 7.65661 35.7587C7.01391 35.3341 6.42892 34.8422 5.91357 34.2536C4.94176 33.1429 4.06785 32.0135 3.29502 30.7369C0.024222 25.3343 -1.8788 16.7981 2.79638 11.6939C4.5446 9.78533 6.98725 8.65991 9.58272 8.72757C10.576 8.75343 11.4857 9.05628 12.3975 9.37782C13.2885 9.69181 14.1202 9.99227 15.0295 10.2625C15.3395 10.3544 15.7447 10.3488 16.0495 10.2446L18.7361 9.32728C19.7696 8.9743 20.813 8.66867 21.9217 8.63325C24.7986 8.54172 27.9476 9.7909 29.5864 12.2714C27.1831 13.7653 25.7107 15.7754 25.5559 18.651C25.339 22.2971 27.3069 25.228 30.5713 26.7048C29.8279 29.0253 28.6587 31.1201 27.1779 33.0474C26.4835 33.9516 25.797 34.7781 24.8917 35.4527C22.8362 36.9207 21.1 36.4265 18.9518 35.549C17.0977 34.7917 15.1553 34.769 13.2789 35.4762Z" fill="#3D3D3D"/>
<path d="M64.4337 35.9935L64.3665 11.1877L54.1916 35.9816L50.3676 35.9979L40.1847 11.1833L40.121 35.9903L35.4267 35.9895L35.4264 2.50792L41.412 2.51548L52.2802 29.3886L63.1308 2.50354L69.1519 2.5119L69.1515 35.9887L64.4337 35.9935Z" fill="#3D3D3D"/>
<path d="M89.5384 11.5765L94.5383 11.5789L94.5562 35.9792L89.7767 35.9959L89.7174 31.7803C88.5853 34.1919 86.6743 35.8045 84.0987 36.251C80.1578 36.9343 76.1054 35.695 74.4232 31.8034C73.8995 30.5916 73.6723 29.3819 73.5807 28.024L73.5784 11.5765L78.5691 11.5773L78.5719 26.669C78.6069 28.9815 79.4781 31.2089 81.8634 31.8623C84.5731 32.6049 87.6222 31.7967 88.8702 29.0619C89.304 28.1108 89.532 27.1187 89.5324 26.0335L89.5384 11.5765Z" fill="#3D3D3D"/>
<path d="M115.011 34.143C112.038 36.5701 107.629 36.9088 104.008 36.0671C103.046 35.8435 102.205 35.4921 101.356 35.0253C99.0774 33.7403 97.6435 31.464 97.4378 28.8363H102.392C102.649 30.6004 103.8 31.967 105.534 32.3872C106.863 32.7402 108.222 32.7096 109.57 32.4453C110.125 32.2849 110.607 32.1122 111.105 31.813C112.539 30.9526 112.987 28.929 111.854 27.6384C111.322 27.0323 110.519 26.6953 109.741 26.5054L104.289 25.1775C102.964 24.8547 101.753 24.3326 100.65 23.5781C99.0435 22.4801 98.1589 20.8159 98.0654 18.8822C97.8728 14.9078 100.691 12.2845 104.371 11.4635C107.277 10.8152 110.879 11.0544 113.441 12.7019C115.564 14.0343 116.863 16.2839 116.911 18.7946L112.237 18.8006C112.066 17.13 111.033 15.7849 109.424 15.2544C107.889 14.7876 106.229 14.8477 104.77 15.49C103.812 15.9656 103.123 16.7408 102.967 17.7799C102.653 19.8648 104.471 20.8811 106.204 21.2902L111.48 22.5354C112.701 22.8235 113.819 23.288 114.866 23.9179C116.39 24.8344 117.252 26.2858 117.444 28.0384C117.704 30.4046 116.866 32.6288 115.012 34.143H115.011Z" fill="#3D3D3D"/>
<path d="M140.158 32.2336C141.604 32.2221 142.904 31.8209 143.956 30.9204C144.897 30.0811 145.44 28.9847 145.706 27.7144L150.5 27.7112C150.198 31.3613 147.852 34.406 144.402 35.6735C141.777 36.6382 138.868 36.6943 136.172 35.8872C133.773 35.1693 131.801 33.6432 130.489 31.5336C128.531 28.3858 128.158 24.1846 128.791 20.6042C129.549 16.3182 132.178 12.7664 136.473 11.5861C138.968 10.9004 141.594 10.9625 144.032 11.7691C147.632 13.0084 150.136 16.1041 150.474 19.9599L145.71 19.9766C145.431 18.647 144.828 17.4866 143.812 16.6146C142.793 15.7511 141.544 15.348 140.201 15.3141C136.667 15.2011 134.515 17.7504 133.871 21.0053C133.485 22.9612 133.502 24.9435 133.944 26.8887C134.644 29.9661 136.768 32.3036 140.158 32.2336Z" fill="#3D3D3D"/>
<path d="M125.492 35.9843L120.497 35.9935L120.496 11.5813L125.492 11.5773L125.492 35.9843Z" fill="#3D3D3D"/>
<path d="M22.016 4.27126C20.7585 6.54518 18.2215 8.84894 15.3559 8.61136C15.1939 7.39441 15.4446 6.18264 15.9468 5.03812C16.8124 3.06704 18.3131 1.55441 20.275 0.68528C21.1131 0.313987 21.9404 0.0477547 22.9047 0C23.0424 1.50666 22.7447 2.95323 22.016 4.27126Z" fill="#3D3D3D"/>
<path d="M122.819 7.62483C120.959 7.51101 119.765 5.76478 120.202 4.03129C120.623 2.36107 122.461 1.38767 124.12 2.08966C125.412 2.63646 126.089 4.02413 125.791 5.3724C125.498 6.70356 124.302 7.71556 122.819 7.62483Z" fill="#3D3D3D"/>
</svg>
