<svg width="51" height="50" viewBox="0 0 51 50" fill="none" xmlns="http://www.w3.org/2000/svg">
<path d="M11.1617 26.9104H0.226936V33.3906H11.1617V26.9104Z" fill="#3D3D3D"/>
<path d="M26.6348 17.9409V24.4301H37.5714V17.9409H26.6348Z" fill="#3D3D3D"/>
<path d="M37.5732 26.9086H26.6384V33.3888H37.5732V26.9086Z" fill="#3D3D3D"/>
<path d="M50.7735 8.97315H39.8387V15.4479H50.7735V8.97315Z" fill="#3D3D3D"/>
<path d="M50.7753 17.9409H39.8387V24.4319H50.7753V17.9409Z" fill="#3D3D3D"/>
<path d="M50.7735 0H39.8387V6.4784H50.7735V0Z" fill="#3D3D3D"/>
<path d="M50.7735 26.9086H39.8387V33.3888H50.7735V26.9086Z" fill="#3D3D3D"/>
<path d="M24.3603 8.97315H13.4273V15.4497H24.3603V8.97315Z" fill="#3D3D3D"/>
<path d="M24.3603 17.9427H13.4273V24.4265H24.3603V17.9427Z" fill="#3D3D3D"/>
<path d="M24.3603 26.9104H13.4273V33.3906H24.3603V26.9104Z" fill="#3D3D3D"/>
<path d="M5.23873 49.8498C3.15437 50.2985 1.03054 49.5441 0.304068 47.4021C-0.101323 46.2081 -0.0941481 44.9399 0.282543 43.7441C0.845787 41.9839 2.43148 40.9762 4.24857 41.0449C5.25487 41.0847 6.15355 41.3869 6.80289 42.2534L6.83159 36.8008L9.15632 36.7574L9.14376 49.962L6.92666 49.9656L6.86926 48.8295C6.40826 49.3451 5.90601 49.7015 5.23873 49.8462V49.8498ZM6.63069 44.2669C6.21812 43.3371 5.3033 42.8432 4.35081 42.9517C3.39832 43.0603 2.68081 43.7333 2.44942 44.6957C2.24134 45.5605 2.31488 46.4831 2.84404 47.2194C3.37321 47.9557 4.25215 48.2416 5.14545 48.0389C6.74549 47.6753 7.26927 45.7052 6.63069 44.2669Z" fill="#3D3D3D"/>
<path d="M41.5554 46.5699L43.5303 47.3714C42.8271 49.7992 40.149 50.3835 37.9893 49.7576C35.3704 48.9978 34.4664 46.1936 35.2305 43.8617C36.0162 41.4646 38.5006 40.5728 40.7751 41.253C42.8612 41.8771 43.559 43.9323 43.1464 45.953L37.3203 45.9766C37.3203 47.252 38.332 48.095 39.532 48.0914C40.5042 48.1402 41.3293 47.6066 41.5572 46.5717L41.5554 46.5699ZM40.9867 44.3466C41.0531 43.5053 40.445 42.9608 39.7024 42.8323C38.6351 42.6478 37.514 43.2086 37.3454 44.352L40.9867 44.3466Z" fill="#3D3D3D"/>
<path d="M16.3439 46.5663L18.4014 47.4094C18.3153 47.5233 18.231 47.6102 18.17 47.7549C17.77 48.721 16.9915 49.441 15.9762 49.7449C13.7286 50.4161 10.9752 49.7087 10.0765 47.2791C9.67472 46.1936 9.6514 45.0087 9.99939 43.8979C10.7958 41.3579 13.5654 40.4733 15.856 41.3561C17.7269 42.0779 18.3063 44.0571 17.935 45.9512L12.1053 45.9639C12.0837 47.2592 13.1331 48.095 14.3511 48.095C15.3233 48.095 16.1143 47.5921 16.3439 46.5645V46.5663ZM15.7861 44.3375C15.813 43.4728 15.2228 42.9734 14.5143 42.8396C13.4291 42.6243 12.3385 43.1923 12.1071 44.3538L15.7861 44.3375Z" fill="#3D3D3D"/>
<path d="M24.9271 46.5717L26.9021 47.3696C26.2007 49.7757 23.5836 50.3691 21.4239 49.7739C19.7467 49.3107 18.6131 47.9394 18.4014 46.2045C18.2364 44.8495 18.4983 43.4963 19.388 42.4542C20.9611 40.6089 24.1163 40.5999 25.6321 42.1304C26.5738 43.0802 26.816 44.6722 26.5056 45.9512L20.6974 45.9711C20.6831 47.1941 21.6284 48.0371 22.7997 48.0842C23.7988 48.1728 24.6975 47.6464 24.9253 46.5699L24.9271 46.5717ZM24.3854 44.3339C24.398 43.4764 23.8383 42.997 23.1441 42.8468C22.0589 42.6116 20.9127 43.1887 20.7136 44.3538L24.3854 44.3339Z" fill="#3D3D3D"/>
<path d="M34.8018 49.9946L27.0312 50L27.0205 47.9069L31.6914 43.1435L27.1945 43.1109C27.1711 42.409 27.1568 41.7378 27.2034 41.0467L34.6673 41.0413L34.6637 43.0386L29.9945 47.7712L34.7875 47.82L34.8018 49.9928V49.9946Z" fill="#3D3D3D"/>
<path d="M50.9762 44.3755L48.7771 44.3791L48.682 43.7658C48.5923 43.1905 48.1241 42.8016 47.5735 42.8251C47.064 42.8468 46.4954 43.2611 46.49 43.8907L46.4416 49.991H44.1115L44.1061 41.063L46.4828 41.0268C46.4667 41.3597 46.377 41.7034 46.5313 42.172C47.021 41.3923 47.751 41.0214 48.6282 41.0467C49.7565 41.0811 50.6713 41.8011 50.9152 42.921C51.0157 43.3805 51.0139 43.8346 50.9762 44.3755Z" fill="#3D3D3D"/>
</svg>
