<svg width="143" height="54" viewBox="0 0 143 54" fill="none" xmlns="http://www.w3.org/2000/svg">
<path d="M25.643 53.3645H24.2757C23.7467 53.312 23.2094 53.2148 22.7085 52.9662C22.3247 52.7762 21.9538 52.2754 22.0959 51.8338C22.3786 50.9521 22.7518 50.1602 23.1607 49.3264L26.1492 43.2386L29.3846 36.2334C30.6136 33.5725 31.6541 30.8691 32.4924 28.0684C32.5653 27.8244 32.4544 27.5599 32.2765 27.4581C32.0987 27.3562 31.9003 27.4307 31.7073 27.5189L29.5495 28.5016C28.6504 28.9112 27.7726 29.2935 26.8362 29.6006C26.5687 29.6888 26.2388 29.6561 26.0017 29.52C25.3093 29.1218 25.4887 27.3783 25.7441 26.6106C25.9196 26.0824 26.3376 25.7305 26.8735 25.5975C27.4161 25.4516 27.9231 25.3095 28.4467 25.0814L33.8004 22.7542L35.7521 16.4703C36.1618 15.1509 36.4544 13.8763 36.7463 12.5303C37.0381 11.1843 37.2281 9.84131 37.2752 8.45273C37.2965 7.82039 37.2258 7.21388 37.0442 6.63094C36.5335 4.98851 34.8242 4.88287 33.3657 5.11772C30.191 5.62922 27.2953 7.01247 24.5531 8.66022C23.0642 9.55478 21.6445 10.4547 20.243 11.486L14.868 15.4427C13.8754 16.1739 13.0037 16.9582 12.0992 17.7912L7.90006 21.6613L5.00434 24.2454C4.28992 24.8831 3.3528 25.0275 2.45976 24.5806C1.51428 24.1071 0.738292 23.3129 0.228312 22.3735C-0.587961 20.8686 0.964781 19.6191 2.04935 18.7238L5.04083 16.2537C10.8589 11.4488 20.5424 5.78654 27.6669 3.16824C30.5102 2.1232 36.0014 0.445048 38.7429 2.01983C39.8252 2.64154 40.5723 3.66682 40.9614 4.84715C41.5854 6.7419 41.4615 9.19756 41.2244 11.1843C41.007 13.0084 40.6855 14.7519 40.2827 16.5379L39.5493 19.7909C39.509 19.968 39.6313 20.2606 39.7294 20.3677C39.8426 20.4924 40.0988 20.5403 40.304 20.4772L49.1963 17.7548C49.9153 18.6197 49.7101 20.0865 49.3157 21.0624C49.0056 21.8285 48.263 22.1987 47.487 22.3803L43.9673 23.2019C42.619 23.5165 41.3528 23.9596 40.0326 24.3625C39.7324 24.4537 39.4497 24.5228 39.1601 24.6353C38.6 24.8534 38.1569 25.2874 37.9676 25.8932C36.817 29.5786 35.5811 33.2381 34.153 36.8513C32.1222 41.9899 30.0132 47.0752 27.6996 52.0785C27.3333 52.8705 26.3384 53.0909 25.643 53.3637V53.3645Z" fill="#3D3D3D"/>
<path d="M83.7899 39.4202C84.9231 39.4772 85.7242 39.1397 86.4188 40.1027C86.7411 40.5496 86.7229 41.1044 86.3003 41.508C85.9385 41.853 85.4597 42.1061 84.9406 42.2163C83.9016 42.4368 82.8361 42.4808 81.791 42.2916C80.1532 41.9959 79.2586 40.9266 79.0678 39.3039C78.9553 38.3493 79.0184 37.4084 79.178 36.4546L79.6895 33.4053C79.7633 32.9637 79.6857 32.2607 79.2062 32.1117C78.4127 31.8655 76.8576 34.3075 76.3728 34.9679C75.3878 36.3094 74.4529 37.6258 73.5386 39.0181C72.8804 40.0199 72.1196 40.8627 71.1627 41.5772C70.7174 41.91 70.2051 42.0871 69.6389 42.0248C68.5102 41.9002 67.6734 41.0809 67.4462 39.9864C67.2585 39.0812 67.2075 38.1912 67.3998 37.2746L67.9645 34.5765C68.0056 34.3819 67.9433 34.1327 67.8194 34.0065C67.3481 33.5284 66.4832 34.0878 65.974 34.4321L63.2394 36.2797C61.3971 37.5239 59.5624 38.6776 57.8257 40.0655C57.0862 40.6568 56.3794 41.1903 55.5836 41.6988C54.1464 42.6169 52.4211 42.9163 50.7757 42.4573C49.6128 42.1327 48.7373 41.283 48.3877 40.1339C48.1353 39.3031 48.0943 38.4299 48.32 37.5855C48.6301 36.4226 49.8766 35.0227 50.7354 34.1699C50.8296 34.0764 50.8798 33.8682 50.8555 33.7443C50.8327 33.6272 50.6761 33.4524 50.5218 33.4365C48.5115 33.229 46.0422 32.7433 44.4743 31.3988C43.3076 30.3979 42.9466 28.7395 43.7036 27.3836C44.9508 25.1499 49.4107 24.8512 51.6839 24.8451L55.1367 24.836C57.2101 24.8306 59.1976 24.5487 61.2003 23.9194C61.7718 25.6302 61.4153 27.6169 59.6278 28.3199C59.0319 28.554 58.4064 28.681 57.7436 28.6635L51.5821 28.5046L48.8893 28.3344C48.1863 28.2903 47.2697 28.5168 47.1701 29.2989C47.1344 29.5801 47.2089 30.1167 47.5486 30.2261C49.1348 30.7361 50.778 30.8926 52.4538 30.8866C53.5908 30.8828 54.6587 30.7756 55.7843 30.6745L58.1047 30.4655C59.0927 30.3766 59.5936 31.639 59.3762 32.4309C59.1497 33.2548 57.6076 33.8834 56.8514 34.1631L54.6366 34.9839C53.7094 35.3274 51.7105 36.6947 52.3831 37.9054C52.9007 38.838 54.3227 38.2786 55.1101 37.8872C56.1065 37.3909 57.0186 36.8338 57.9382 36.1984L62.1959 33.2571C64.1332 31.9187 66.2279 30.8964 68.5171 30.331C69.3029 30.1372 70.0751 30.0437 70.8435 30.1691C72.3279 30.4115 71.9486 31.6094 72.9108 32.7342C73.1989 33.0717 73.6336 33.1226 73.9756 32.8543C74.2257 32.6582 74.4339 32.415 74.6308 32.1528C75.8499 30.524 77.1982 28.719 78.7623 27.4254C80.3264 26.1318 82.1216 25.4782 83.9723 26.6274C84.4428 26.9192 84.7673 27.2977 84.8767 27.8738C85.1876 29.5147 84.5499 31.7325 84.1228 33.3779L83.2419 36.7722C83.077 37.4069 83.0048 38.0521 83.0618 38.686C83.0998 39.1063 83.3749 39.4012 83.7899 39.4217V39.4202Z" fill="#3D3D3D"/>
<path d="M110.124 38.9931C110.063 37.5672 110.901 36.5792 112.008 35.8093L113.516 34.7597C113.635 34.6768 113.759 34.4944 113.769 34.3789C113.809 33.9062 113.265 33.7542 112.9 33.6592C111.151 33.2024 109.345 32.7844 107.906 31.7044C106.282 30.4853 106.126 28.1672 107.586 26.7467C109.484 24.8998 113.176 24.5935 115.72 24.6034C117.581 24.6102 119.362 24.4483 121.177 24.066L124.011 23.4702C124.179 25.5466 123.311 27.6473 121.164 28.2743C120.528 28.4598 119.898 28.5343 119.221 28.4932L113.17 28.1284C112.777 28.1048 112.389 28.1109 112.045 28.2363C111.622 28.3899 111.352 28.7554 111.336 29.1697C111.322 29.5542 111.571 30.049 112.02 30.1607C113.505 30.5301 114.96 30.8812 116.489 31.0788L120.287 31.5683C120.666 31.617 121.022 31.7325 121.316 31.9582C121.86 32.3739 121.977 33.0739 121.629 33.6645C121.025 34.689 119.615 35.1564 118.498 35.4027C117.747 35.5684 117.043 35.807 116.408 36.2311C115.537 36.8133 114.761 37.8652 115.419 38.8281C116.542 40.4744 120.005 38.1927 121.158 37.3483C123.389 35.7158 125.357 33.796 127.066 31.6238C127.974 30.4701 129.333 28.4499 129.588 27.0545C129.26 25.0784 129.18 22.8447 130.381 21.1384C130.785 20.5638 131.293 20.1017 131.935 19.8388C132.318 19.6822 132.653 19.7111 133.017 19.8593C135.277 20.7835 134.28 23.3744 134.2 25.3155C134.181 25.7951 134.346 26.1964 134.663 26.5316C135.149 27.0469 135.679 27.4862 136.247 27.9171L137.902 29.1704C138.205 29.3999 138.462 29.6941 138.674 29.9958C138.988 30.4435 138.932 30.961 138.606 31.3844L137.139 33.2936C136.58 34.0209 135.578 35.5478 135.882 36.4751C136.207 37.4616 137.3 37.8994 138.248 37.549C139.223 37.1887 140.167 36.377 140.569 36.3671C141.236 36.3512 141.692 36.9858 141.684 37.6189C141.678 38.1107 141.491 38.5629 141.184 38.952C139.81 40.6917 137.62 41.5065 135.432 41.1462C134.413 40.9783 133.483 40.618 132.673 39.994C130.549 38.3577 131.869 35.712 132.883 33.8552C133.127 33.4076 133.355 32.9751 133.573 32.5183C133.779 32.0851 133.694 31.62 133.326 31.3C132.945 30.9686 132.47 30.7118 131.945 30.6479C131.652 30.6122 131.262 30.8106 131.085 31.0469C129.986 32.5183 129.152 34.0985 128.04 35.5547C127.044 36.8589 125.925 38.0119 124.67 39.0691C121.862 41.4358 118.427 42.9285 114.713 42.8502C112.498 42.8031 110.225 41.3453 110.123 38.9915L110.124 38.9931Z" fill="#3D3D3D"/>
<path d="M92.5895 42.8282C90.0571 42.743 88.344 40.976 87.6372 38.6518C86.7191 35.6307 87.4122 31.9962 88.9551 29.2943C89.5996 28.1649 90.4166 27.2095 91.4449 26.4472C93.2287 25.1248 95.4693 24.8762 97.5024 25.7594C98.0055 25.9783 98.4638 26.2192 98.8096 26.6524C99.0893 27.0028 99.2254 27.4201 99.1273 27.867C98.9464 28.6908 97.9059 28.567 97.2934 28.3982C95.6471 27.9452 94.2821 28.8162 93.3085 30.0847C91.8014 32.0479 91.166 34.5469 91.5422 36.9957C91.7884 38.5994 92.8221 40.0085 94.6165 39.7014C96.4839 39.3814 97.8064 37.3985 98.0602 35.7226L98.4843 32.9242C98.8339 30.6152 99.1463 28.3047 99.7407 26.0292C101.322 19.9786 103.192 14.0428 105.228 8.13352C105.831 6.38469 106.476 4.6959 107.173 3.00407C107.459 2.31092 107.768 1.6839 108.137 1.04091C108.292 0.770341 108.532 0.555253 108.819 0.429848C109.825 -0.00945016 111.144 -0.206298 112.15 0.299882C113.108 0.781742 113.104 1.88227 112.761 2.75098L111.347 6.33073L109.398 11.0414C108.133 14.0982 107.042 17.1672 106.019 20.3168L103.73 27.3593C103.127 29.2145 102.638 31.0386 102.246 32.947C101.914 34.5674 101.044 39.0767 103.543 39.3259C104.091 39.3807 104.639 39.2925 105.141 39.0523L106.179 38.5545C106.656 38.3257 107.122 38.4337 107.501 38.7597C108.077 39.256 108.257 39.994 107.909 40.6948C107.651 41.2139 107.244 41.6334 106.748 41.9648C105.531 42.778 104.096 43.0782 102.636 42.9619C101.493 42.8707 100.476 42.5264 99.5073 41.9298L98.7724 41.4768C98.2761 41.1713 97.7121 41.1857 97.1991 41.467C95.7558 42.2581 94.2897 42.8836 92.588 42.8266L92.5895 42.8282Z" fill="#3D3D3D"/>
<path d="M142.5 24.158C142.5 25.4759 141.431 26.5437 140.113 26.5437C138.794 26.5437 137.725 25.4759 137.725 24.158C137.725 22.8401 138.794 21.7723 140.113 21.7723C141.431 21.7723 142.5 22.8401 142.5 24.158ZM142.168 24.1519C142.168 23.0142 141.245 22.0922 140.107 22.0922C138.968 22.0922 138.045 23.0142 138.045 24.1519C138.045 25.2897 138.968 26.2116 140.107 26.2116C141.245 26.2116 142.168 25.2897 142.168 24.1519Z" fill="#3D3D3D"/>
<path d="M141.169 25.4333L140.794 25.4212C140.668 25.4174 140.855 24.6171 140.451 24.4932C140.2 24.4164 139.911 24.4377 139.603 24.4385L139.588 25.4242L139.135 25.4212L139.137 22.8394C139.859 22.8941 141.226 22.5589 141.193 23.5948C141.182 23.952 140.962 24.199 140.631 24.2112C140.876 24.348 141.094 24.5357 141.115 24.7835L141.17 25.4326L141.169 25.4333ZM140.509 24.0258C140.655 23.9916 140.741 23.7446 140.74 23.6283C140.731 23.0719 140.033 23.1532 139.594 23.1578L139.597 24.0888C139.93 24.0949 140.181 24.1025 140.509 24.0258H140.509Z" fill="#3D3D3D"/>
</svg>
