<svg width="77" height="49" viewBox="0 0 77 49" fill="none" xmlns="http://www.w3.org/2000/svg">
<path d="M3.78588 31.8776C3.78588 32.5844 4.34298 32.9827 4.95252 32.9606C6.83264 32.8926 7.87641 31.5746 8.41099 29.9031C8.67397 29.0806 8.85743 28.2565 8.91372 27.3928L9.06652 25.0504L9.11658 20.2251L12.8155 18.9121L12.7952 27.2182C12.816 27.5557 12.8677 27.8551 13.0148 28.1377C13.2095 28.5115 13.6195 28.6414 13.9977 28.428C15.4597 27.6033 15.9471 22.8872 16.0347 21.2897L16.034 17.934L19.8158 16.7496L19.8235 25.1118C19.8239 25.7086 20.3188 26.1407 20.8656 26.1847C21.2133 26.2128 21.5956 26.1498 21.8231 25.8794C23.0228 24.4543 23.52 20.3528 23.6048 18.4547L23.5571 2.25735L27.4355 0.763789L27.3859 24.2007C27.3751 24.9259 27.6695 25.613 28.2917 25.9879C28.9585 26.3898 29.8614 26.3546 30.4887 25.8803C30.9184 25.5556 31.1722 25.009 31.1727 24.4469L31.1792 16.8895C31.1792 16.6658 31.1406 16.4503 31.0779 16.2563C30.9267 15.7897 30.521 15.5219 29.9951 15.5562L29.9915 13.4013C30.5287 13.1645 31.0657 13.0361 31.6445 12.9417C32.353 12.8263 33.0452 13.0826 33.4672 13.6866C33.7694 14.1191 34.065 14.6508 34.0671 15.2108L34.0887 20.3252C34.0901 20.683 34.196 21.0282 34.4635 21.2559C34.7337 21.4859 35.1591 21.5714 35.5104 21.4511L37.8921 20.6363C38.2779 20.5044 38.6836 20.6517 38.9361 20.9487C39.3425 21.4267 39.3586 22.2952 40.147 22.551C40.9798 22.8211 41.8492 22.174 42.1835 21.3788C42.3929 20.8809 42.2805 20.2991 41.8327 19.9585L37.1872 16.4261C36.6569 16.0227 36.4624 15.3222 36.3266 14.7033C36.0615 13.4935 36.4325 12.2843 37.3537 11.4692C37.7467 11.1215 38.1759 10.8187 38.6882 10.6492L45.1299 8.51421L45.1469 9.69953C45.1534 10.1436 45.4351 10.4659 45.8798 10.5764C46.3157 10.6846 46.9492 10.5627 47.2182 10.1381C47.7667 9.27129 48.3781 8.51876 49.1941 7.88575C50.2894 7.03598 51.5094 6.41997 52.8852 6.04418L52.8447 7.89988C52.2229 7.9267 51.6754 8.38129 51.6747 9.04137L51.667 16.5439C51.6665 17.0466 51.9226 17.5041 52.3185 17.7752C53.0492 18.2753 54.042 18.3059 54.7722 17.7757C55.2201 17.4504 55.5262 16.8737 55.5267 16.2888L55.5377 5.16448L57.0008 4.87228C58.4371 4.58535 59.267 6.1716 59.2702 7.20866L59.2862 12.5188C59.2874 12.8845 59.4867 13.2358 59.7841 13.4033C60.1587 13.614 60.6399 13.6693 61.0451 13.4969C62.2084 13.0018 62.9878 8.4905 62.9942 7.30518L63.0189 2.74403L66.8108 1.50722L66.8213 2.75385C66.8323 3.10664 67.0452 3.40698 67.3911 3.50829C68.1781 3.73846 68.8159 3.47668 69.2097 2.75337L70.053 1.20496C70.48 0.420816 71.4514 -0.322612 72.3055 0.145623C72.6095 0.31208 72.8894 0.683314 72.8897 1.0864L72.8923 23.8194C72.8923 24.1853 73.0736 24.4857 73.3639 24.6574C73.8072 24.9197 74.3679 24.9249 74.8065 24.6404C75.0555 24.4787 75.2167 24.17 75.2177 23.8646L75.2232 22.2894C75.2232 22.2394 75.3355 22.1646 75.3832 22.1486L76.3508 21.8207L76.4382 21.7905C76.4595 21.7831 76.5002 21.8379 76.5 21.8751L76.4878 23.6831C76.4784 25.0624 75.7161 26.2303 74.514 26.8961C73.5399 27.4357 72.4394 27.7128 71.3109 27.7073C70.5959 27.7037 69.9574 27.3373 69.574 26.7584C69.3598 26.435 69.1488 26.0621 69.1488 25.6406L69.1462 7.12148C69.1462 6.66259 68.8617 6.31123 68.4365 6.19914C68.1204 6.1158 67.7954 6.10837 67.4687 6.20561C67.142 6.30285 66.8227 6.60008 66.8225 6.9852L66.816 16.137L63.1233 17.3642C63.125 16.9887 63.1025 16.6572 63.0225 16.3219C62.9027 15.96 62.6695 15.6699 62.3857 15.5598C61.5012 15.2163 60.9266 15.8927 60.5055 16.6155C59.6943 18.008 57.8029 19.0784 56.3118 19.5567L53.5563 20.4407C53.0219 20.6122 52.4737 20.7039 51.9092 20.7465C49.9359 20.8957 48.4948 18.8719 48.4828 17.7508L48.4404 13.82C48.4337 13.1906 48.1848 12.6129 47.5023 12.5331C46.539 12.4206 45.7773 13.1223 45.0856 13.6825C43.8397 14.6916 42.955 11.047 41.3972 11.9001C40.9278 12.1571 40.5523 12.6119 40.422 13.1479C40.3307 13.523 40.4083 13.9831 40.7278 14.2209L45.122 17.4943C46.4731 18.5007 46.9545 21.4437 44.9891 22.9066C44.4406 23.315 43.8443 23.6086 43.1727 23.8184L36.9201 25.7706C36.9534 25.4394 36.9831 25.18 36.9515 24.8888C36.8751 24.1856 36.1849 23.6881 35.4889 23.8927C35.2137 23.9736 34.9636 24.2112 34.8055 24.4459C33.6013 26.2329 31.73 27.5427 29.6782 28.1877L23.7092 30.0638C23.4793 30.1361 23.7636 29.7352 23.521 28.992C23.3531 28.4773 22.8951 28.1899 22.3536 28.1983C22.0834 28.2023 21.7654 28.2483 21.6119 28.5029L20.027 31.1289C19.879 31.3739 19.6735 31.582 19.4515 31.7387C18.4695 32.4313 17.4387 31.2441 16.8898 30.544C16.6596 30.2504 16.3284 30.0566 15.9844 30.0348C15.6225 30.0121 15.2793 30.1572 15.0103 30.4257C14.517 30.9179 14.1086 31.4632 13.8231 32.1288C13.3111 33.323 12.8409 34.6096 12.8375 35.9501L12.8105 46.7837L8.65265 48.119C8.61218 48.1319 8.54009 48.1412 8.53985 48.0105L8.5341 35.924C8.5341 35.469 8.39351 35.1198 8.12502 34.8431C7.83043 34.5397 7.28507 34.4791 6.90042 34.686L4.20406 36.1367C3.81798 36.3444 3.44507 36.5202 3.02138 36.6394C2.33256 36.8334 1.57141 36.7853 0.970009 36.3429C0.471836 35.9762 0.0474308 35.3202 0.0459938 34.6405L8.54454e-06 12.9602C-0.00238652 11.7974 0.4989 10.7102 1.2852 9.89808C1.89881 9.26411 2.61901 8.74701 3.4695 8.48451L10.7486 6.23842C11.9801 5.85833 13.7982 7.51859 13.8059 9.12208L13.8325 14.6336L9.30243 16.0441C9.26914 16.0543 9.22292 16.0656 9.20472 16.0699C9.18651 16.0742 9.16113 15.993 9.16113 15.9691L9.1525 11.3179C9.15083 10.465 8.34561 9.80204 7.51165 10.0233C6.82115 10.2066 6.17783 10.4705 5.50171 10.7253C4.47758 11.1109 3.78732 12.564 3.78732 13.4904L3.78541 31.8778L3.78588 31.8776Z" fill="#3D3D3D"/>
<path d="M17.9656 11.5591C19.3433 11.5591 20.4601 10.4422 20.4601 9.0646C20.4601 7.68695 19.3433 6.57014 17.9656 6.57014C16.588 6.57014 15.4712 7.68695 15.4712 9.0646C15.4712 10.4422 16.588 11.5591 17.9656 11.5591Z" fill="#3D3D3D"/>
<path d="M75.8639 1.44135C75.8639 2.10838 75.3231 2.64918 74.656 2.64918C73.989 2.64918 73.4482 2.10838 73.4482 1.44135C73.4482 0.774327 73.989 0.233522 74.656 0.233522C75.3231 0.233522 75.8639 0.774327 75.8639 1.44135ZM75.5772 1.44039C75.5772 0.930725 75.164 0.517576 74.6544 0.517576C74.1447 0.517576 73.7315 0.930725 73.7315 1.44039C73.7315 1.95006 74.1447 2.36321 74.6544 2.36321C75.164 2.36321 75.5772 1.95006 75.5772 1.44039Z" fill="#3D3D3D"/>
<path d="M74.8838 2.05185L74.6544 1.61667C74.6295 1.56973 74.4632 1.51608 74.4568 1.56949L74.4249 2.08562C74.3777 2.0885 74.2331 2.08227 74.1842 2.07556L74.1833 0.780315L74.8081 0.778399C75.0175 0.77768 75.1767 0.927132 75.1966 1.09119C75.2239 1.31753 75.1267 1.47608 74.8886 1.53763L75.1724 2.06503C75.1374 2.10957 74.9193 2.11844 74.8838 2.05137V2.05185ZM74.8527 1.28998C74.909 1.27226 74.9549 1.11826 74.9224 1.0809C74.8951 1.04952 74.805 0.984614 74.7626 0.984374L74.4453 0.982697L74.4458 1.32519C74.5645 1.33046 74.7308 1.3283 74.8527 1.28998Z" fill="#3D3D3D"/>
</svg>
