<svg width="75" height="43" viewBox="0 0 75 43" fill="none" xmlns="http://www.w3.org/2000/svg">
<path d="M31.0039 42.8819L29.7758 42.888L27.6508 39.7197L26.773 38.4001L26.7854 42.8853L25.4247 42.8845L25.4253 35.9705L26.744 35.9595L29.0265 39.3771L29.6592 40.3334L29.6444 35.9685L31.0029 35.9689L31.0039 42.8819Z" fill="#3D3D3D"/>
<path d="M71.0875 37.8978C71.62 39.5311 71.3135 41.6366 69.6092 42.4763C69.0983 42.7226 68.5706 42.8764 67.9977 42.878L65.7396 42.8841V35.9618L68.047 35.964C68.5633 35.9646 69.0432 36.0534 69.518 36.2353C70.2711 36.5321 70.832 37.1146 71.0875 37.8978ZM69.7904 38.5322C69.4711 37.2688 68.1672 37.2588 67.1167 37.321L67.1177 41.5306C67.5564 41.5437 67.9712 41.5588 68.3886 41.4814C69.8283 41.2145 70.0957 39.7405 69.7904 38.5322Z" fill="#3D3D3D"/>
<path d="M38.151 37.9933C38.6335 39.6295 38.3172 41.6419 36.6429 42.4745C36.1134 42.7328 35.5602 42.8802 34.9629 42.8809L32.7735 42.8833L32.7729 35.965L35.0835 35.9642C35.5881 35.9642 36.0582 36.0526 36.5235 36.2251C37.3255 36.5299 37.9053 37.1605 38.1508 37.9931L38.151 37.9933ZM36.815 38.5043C36.4357 37.2438 35.2413 37.2743 34.1508 37.3216L34.1516 41.5296C34.5907 41.5441 35.0073 41.5596 35.4249 41.4803C36.8752 41.2054 37.1274 39.7327 36.8148 38.5043H36.815Z" fill="#3D3D3D"/>
<path d="M56.8231 41.0534C56.3704 42.3668 55.2825 43.0489 53.8993 42.988C52.8606 42.9422 51.9874 42.3625 51.5319 41.428C50.9695 40.2747 50.9693 38.6514 51.4995 37.4861C51.9718 36.448 52.9338 35.8612 54.0595 35.8475C55.2971 35.8324 56.3446 36.5085 56.7864 37.6941C57.1827 38.7583 57.1975 39.9676 56.8233 41.0534H56.8231ZM54.1598 41.6156C55.8062 41.5561 55.8725 39.2851 55.451 38.1615C55.227 37.5646 54.7133 37.2303 54.1037 37.2271C53.5038 37.224 53.0151 37.5417 52.7722 38.0925C52.4389 38.8486 52.4373 40.076 52.8044 40.819C53.0655 41.3473 53.5545 41.6376 54.1601 41.6156H54.1598Z" fill="#3D3D3D"/>
<path d="M16.4909 41.1017C16.0095 42.4342 14.8724 43.0902 13.4742 42.9792C12.5157 42.9031 11.7111 42.3676 11.2639 41.517C10.6559 40.3603 10.6468 38.6858 11.1765 37.5051C11.649 36.452 12.6179 35.8575 13.759 35.8479C14.9806 35.8377 16.0206 36.5052 16.4644 37.6743C16.8759 38.7581 16.8889 40.0004 16.4909 41.1017ZM13.819 41.6166C14.4444 41.6044 14.9356 41.2498 15.1487 40.6619C15.4353 39.8715 15.4355 38.9545 15.1418 38.1683C14.9137 37.558 14.3856 37.2175 13.7584 37.2271C13.1328 37.2366 12.628 37.5959 12.4129 38.2059C12.1394 38.9818 12.1396 39.8774 12.4182 40.6518C12.6402 41.2689 13.1591 41.6292 13.8188 41.6164L13.819 41.6166Z" fill="#3D3D3D"/>
<path d="M8.40745 42.7839C7.04635 43.2377 5.23337 42.9955 4.37422 41.7382L5.3696 40.8451C5.98812 41.575 6.90849 41.7708 7.80535 41.5547C8.12728 41.474 8.30892 41.2337 8.32818 40.9277C8.41556 39.5429 4.84495 40.5186 4.64182 38.1092C4.57674 37.337 4.90516 36.6374 5.57618 36.2439C6.82902 35.5092 8.65477 35.8276 9.59907 36.9445L8.60612 37.9131C8.04558 37.2971 7.22292 37.0384 6.4481 37.2977C6.20443 37.4043 6.06394 37.5992 6.06475 37.8426C6.06738 38.6266 7.68899 38.4997 8.81756 39.126C9.33046 39.4105 9.6684 39.8796 9.73409 40.4725C9.84944 41.5144 9.43304 42.4421 8.40745 42.7841V42.7839Z" fill="#3D3D3D"/>
<path d="M62.6427 35.9697L64.0212 35.9642L64.0176 39.9774C64.0164 41.2813 63.4187 42.5531 62.0787 42.8892C61.5301 43.0269 60.9777 43.0326 60.4287 42.8963C59.0565 42.5556 58.4469 41.2805 58.4455 39.9366L58.4416 35.9628L59.8272 35.9665V39.977C59.8542 40.822 60.2741 41.6144 61.1963 41.637C62.1643 41.6608 62.6374 40.822 62.6383 39.9362L62.6425 35.9695L62.6427 35.9697Z" fill="#3D3D3D"/>
<path d="M22.3315 35.9671L23.7078 35.9675L23.7017 40.0197C23.6999 41.2669 23.114 42.5079 21.8372 42.8686C20.5568 43.2304 19.0968 42.8529 18.4817 41.5596C18.2557 41.0844 18.1363 40.5805 18.135 40.0438L18.1261 35.9693L19.5051 35.9636L19.5126 39.9389C19.5142 40.7982 19.9719 41.6502 20.9361 41.6374C21.8634 41.625 22.3234 40.8104 22.3248 39.979L22.3315 35.9673V35.9671Z" fill="#3D3D3D"/>
<path d="M43.3477 41.4233C43.6515 41.2518 43.8036 40.9567 43.9755 40.7267L45.1191 41.4243C44.6996 42.4014 43.7935 42.9464 42.7517 42.9961C41.4508 43.0583 40.3266 42.369 39.8626 41.1265C39.3379 39.7217 39.4578 37.8187 40.5653 36.6893C41.2018 36.0402 42.0674 35.7878 42.9619 35.865C43.9264 35.9481 44.7552 36.4938 45.1373 37.391L43.8685 37.9805C43.6357 37.5379 43.2516 37.2717 42.749 37.2326C42.0997 37.182 41.5203 37.5085 41.246 38.1261C40.8888 38.9304 40.8872 39.891 41.2458 40.6964C41.6131 41.5217 42.555 41.8706 43.3477 41.4231V41.4233Z" fill="#3D3D3D"/>
<path d="M50.467 41.5184L50.469 42.8866L46.334 42.8829L46.3344 35.9667L47.7103 35.9638L47.7138 41.5137L50.467 41.5184Z" fill="#3D3D3D"/>
<path d="M65.9773 32.7298L40.2107 32.744C39.6345 32.7444 39.2046 32.1595 39.2046 31.6238V2.14634C39.2044 1.72798 39.4298 1.38762 39.8192 1.22631C43.3235 -0.226351 47.2522 -0.389907 50.8566 0.743582C57.1235 2.71441 61.6244 8.32115 62.2066 14.9111C65.0801 13.7371 68.2592 14.0088 70.8839 15.7519C73.1761 17.274 74.7284 19.8416 74.9676 22.7029C75.4063 27.953 71.3317 32.7269 65.9776 32.73L65.9773 32.7298Z" fill="#3D3D3D"/>
<path d="M38.3231 31.78C38.2886 32.343 37.7709 32.697 37.2983 32.6845C36.7668 32.6707 36.3358 32.2656 36.3048 31.7052L35.8839 24.091L36.3088 3.12401C36.32 2.57448 36.816 2.1883 37.2963 2.17546C37.7808 2.16243 38.3172 2.55003 38.3296 3.10547L38.7922 24.0924L38.3229 31.78H38.3231Z" fill="#3D3D3D"/>
<path d="M35.1217 31.8069C35.0925 32.3629 34.658 32.7291 34.1713 32.7318C33.6898 32.7342 33.2466 32.3595 33.2219 31.8305L32.8592 24.091L33.2162 4.95796C33.2264 4.41148 33.615 4.00167 34.1368 3.97845C34.6045 3.95768 35.1077 4.32899 35.1192 4.87567L35.5261 24.091L35.1217 31.8069Z" fill="#3D3D3D"/>
<path d="M31.8908 31.8812C31.8612 32.3925 31.4491 32.7155 31.0114 32.7165C30.5461 32.7177 30.1462 32.3709 30.1202 31.8674L29.7196 24.0928L30.1192 7.97143C30.1316 7.47099 30.5212 7.11414 30.9777 7.09743C31.4306 7.08073 31.8772 7.42699 31.8916 7.93844L32.3429 24.0914L31.8906 31.8812H31.8908Z" fill="#3D3D3D"/>
<path d="M28.6837 31.956C28.6537 32.4265 28.2458 32.711 27.8525 32.7027C27.4428 32.6941 27.0753 32.3925 27.0497 31.9399L26.6072 24.0924L27.0469 7.32739C27.0588 6.87114 27.4544 6.56053 27.8493 6.55177C28.263 6.5426 28.675 6.85953 28.6888 7.32861L29.184 24.0932L28.6837 31.9562V31.956Z" fill="#3D3D3D"/>
<path d="M25.5124 31.9702C25.482 32.4189 25.1514 32.7008 24.766 32.7102C24.3806 32.7196 24.0214 32.4257 23.995 31.9892L23.5176 24.0906L23.9936 6.91331C24.0056 6.48231 24.3585 6.18881 24.7281 6.17924C25.1267 6.16885 25.497 6.46337 25.511 6.9129L26.0464 24.0912L25.5124 31.9702Z" fill="#3D3D3D"/>
<path d="M22.3568 32.0216C22.3272 32.4259 22.0335 32.6821 21.6791 32.6947C21.3645 32.7059 21.0012 32.466 20.9763 32.0873L20.452 24.0914L20.969 7.45612C20.9811 7.06546 21.3142 6.80861 21.6487 6.80148C21.9729 6.79456 22.3398 7.04712 22.3536 7.43779L22.937 24.0908L22.3566 32.0216H22.3568Z" fill="#3D3D3D"/>
<path d="M19.2221 32.1305C19.1937 32.4945 18.8926 32.7053 18.6046 32.7096C18.2984 32.7141 17.9937 32.489 17.9692 32.1366L17.4121 24.0914L17.9674 8.72078C17.9804 8.36372 18.3108 8.13764 18.6027 8.14293C18.9103 8.14843 19.2111 8.38633 19.2257 8.74746L19.8497 24.0886L19.2219 32.1307L19.2221 32.1305Z" fill="#3D3D3D"/>
<path d="M16.1125 32.1912C16.0849 32.5218 15.7802 32.7063 15.5331 32.6951C15.2432 32.6821 15.009 32.4711 14.9855 32.1501L14.3958 24.089L14.9861 11.5972C15.0011 11.2782 15.2638 11.0709 15.5213 11.0574C15.8134 11.0421 16.0401 11.2322 16.1173 11.5422L16.7871 24.0928L16.1125 32.1912Z" fill="#3D3D3D"/>
<path d="M13.0298 32.1882C13.0039 32.4811 12.7391 32.6336 12.5252 32.6298C12.2698 32.6253 12.0539 32.4391 12.0314 32.1489L11.4045 24.0928L12.0304 16.4041C12.0541 16.112 12.2724 15.9246 12.5238 15.9207C12.7752 15.9169 13.0081 16.0991 13.0347 16.3861L13.7489 24.0932L13.03 32.1882H13.0298Z" fill="#3D3D3D"/>
<path d="M9.97675 32.0896C9.9506 32.3658 9.72679 32.502 9.52589 32.4963C9.30289 32.49 9.12084 32.3248 9.09996 32.0721L8.43603 24.0871L9.10219 15.7928C9.12206 15.5455 9.32458 15.3944 9.52264 15.3869C9.73875 15.3787 9.95384 15.5358 9.97776 15.7971L10.7335 24.0894L9.97716 32.0896H9.97675Z" fill="#3D3D3D"/>
<path d="M6.9464 31.8103C6.92086 32.0588 6.75381 32.1867 6.56305 32.187C6.37228 32.1872 6.21274 32.0493 6.19206 31.8222L5.48961 24.0552L6.19774 16.003C6.21639 15.7908 6.40087 15.6728 6.56285 15.6718C6.72482 15.6708 6.91924 15.7865 6.94032 15.9979L7.7421 24.0914L6.9462 31.8103H6.9464Z" fill="#3D3D3D"/>
<path d="M3.9339 30.7009C3.90856 30.8997 3.77841 30.9932 3.63954 31.0007C3.50067 31.0082 3.33383 30.9052 3.31335 30.7217L2.57117 24.0566L3.31112 17.3023C3.33079 17.1226 3.4581 17.0092 3.61075 16.999C3.73482 16.9907 3.90937 17.0905 3.93106 17.266L4.77561 24.0871L3.9341 30.7011L3.9339 30.7009Z" fill="#3D3D3D"/>
<path d="M1.14418 28.2292C1.11621 28.4068 0.964773 28.4844 0.845975 28.4844C0.696161 28.4844 0.573917 28.373 0.551009 28.2015L0 24.0853L0.552834 19.862C0.574728 19.6947 0.707513 19.5941 0.84557 19.5927C0.983626 19.5913 1.11905 19.6903 1.14459 19.8536L1.80183 24.0578L1.14418 28.2294V28.2292Z" fill="#3D3D3D"/>
</svg>
