<svg width="140" height="48" viewBox="0 0 140 48" fill="none" xmlns="http://www.w3.org/2000/svg">
<path d="M46.912 23.5083C46.912 36.4922 36.4101 47.0167 23.456 47.0167C10.502 47.0167 0 36.4913 0 23.5083C0 10.5254 10.502 0 23.456 0C36.4101 0 46.912 10.5254 46.912 23.5083ZM37.152 20.8889C38.1266 21.4148 39.302 20.9931 39.7419 20.0063C40.1544 19.0816 39.7729 18.0234 38.8247 17.5185C36.9165 16.5024 34.9956 15.6765 32.9058 15.0262C25.1899 12.6263 16.0486 12.2192 8.34736 14.8853C7.27052 15.2585 6.73027 16.357 7.13271 17.3941C7.53516 18.4313 8.64759 18.8026 9.70527 18.4158C12.0616 17.5542 14.4753 17.1198 17.0059 16.9286C23.7535 16.4201 31.1481 17.6521 37.1511 20.887L37.152 20.8889ZM34.9782 27.7796C36.0587 28.268 37.1976 27.8006 37.5882 26.7872C37.9788 25.7738 37.4559 24.7403 36.4356 24.2967C33.2243 22.9019 29.9764 21.7651 26.5296 21.0563C20.8981 19.8974 15.1506 19.9706 9.60398 21.4523C8.58919 21.7239 8.0599 22.7602 8.28348 23.6885C8.50706 24.6168 9.48808 25.343 10.5193 25.076C18.9451 22.8937 27.0945 24.2144 34.9782 27.7796ZM26.7167 32.1331C28.248 32.5557 29.5794 33.1063 30.9538 33.784C31.912 34.2569 33.0372 33.7438 33.4232 32.8493C33.843 31.8771 33.4341 30.8335 32.4951 30.3634C30.9966 29.6125 29.5164 29.0253 27.8902 28.5643C22.6922 27.0918 16.7239 26.8174 11.451 28.0576C10.3696 28.3119 9.74999 29.3317 10.0046 30.3597C10.2592 31.3877 11.2612 31.9886 12.3143 31.728C16.8134 30.6149 22.1939 30.8865 26.7167 32.1331Z" fill="#3D3D3D"/>
<path d="M126.089 34.6337C126.263 34.1636 127.123 32.1048 127.337 32.0078C127.505 31.9319 128.611 32.7679 129.725 32.4276C130.293 32.2539 130.609 31.7316 130.825 31.1664L126.45 20.6602H123.623L123.609 31.3996L120.087 31.4042L120.075 20.7023L118.409 20.6136C118.31 19.6944 118.392 18.7807 118.362 17.8533C118.343 17.2542 119.48 17.6703 120.077 17.5021C120.052 16.5618 120.094 15.7103 120.365 14.8533C121.294 11.9311 124.656 11.9046 127.106 12.6765L127.132 15.371C127.133 15.4881 127.102 15.5997 127.027 15.6472C126.784 15.8018 124.203 14.535 123.673 16.3057C123.58 16.6935 123.538 17.0566 123.571 17.5432L128.959 17.5761L132.581 26.9802L135.897 17.5935L139.202 17.5542C139.289 17.5533 139.395 17.6036 139.43 17.6402C139.474 17.6868 139.53 17.7773 139.481 17.9017L134.068 31.91C133.369 33.7182 132.307 35.3251 130.254 35.5392C128.81 35.6892 127.391 35.4358 126.09 34.6328L126.089 34.6337Z" fill="#3D3D3D"/>
<path d="M76.5234 35.4669L73.3093 35.4953C73.208 35.4953 73.1195 35.4605 73.0638 35.4166C72.9981 35.3645 72.9872 35.2639 72.9872 35.1075L72.9899 17.588L76.5125 17.5908L76.601 19.1849C77.3913 18.4039 78.1761 17.7673 79.2228 17.4865C82.3639 16.6441 85.5835 18.3023 86.7488 21.3636C87.5008 23.3391 87.5054 25.5296 86.7853 27.5162C85.6035 30.7795 82.102 32.4734 78.8359 31.3804C77.9498 31.0841 77.2909 30.5408 76.5672 29.8576L76.5225 35.4669H76.5234ZM83.3769 22.6907C82.8813 21.4193 81.7744 20.5642 80.5387 20.438C79.1744 20.2989 77.9315 20.8633 77.1786 22.0193C76.1894 23.5385 76.2058 25.5543 77.2379 27.0479C78.0218 28.182 79.3186 28.7271 80.6711 28.5323C83.3504 28.1463 84.2803 25.0129 83.376 22.6916L83.3769 22.6907Z" fill="#3D3D3D"/>
<path d="M71.8254 25.7016C71.9541 28.6585 70.2823 30.8097 67.4569 31.4362C63.9261 32.2191 60.2238 31.1518 57.5445 28.6402L59.6854 26.072L61.015 27.0561C62.4514 28.0732 64.1497 28.578 65.9119 28.4107C67.2808 28.2808 68.3677 27.5427 68.2289 26.1314C67.9196 22.9906 58.5784 25.0183 58.3238 18.6572C58.2426 16.624 59.178 14.803 60.9739 13.8052C64.0329 12.104 68.7354 12.9528 71.3646 15.349L69.6042 17.877C69.4865 18.0462 69.2812 17.9822 69.1406 17.8789C67.4642 16.6432 64.8734 15.5457 62.9141 16.5344C62.2488 16.87 61.9166 17.4673 61.9212 18.1569C61.9358 20.5349 66.3728 20.1489 69.5312 21.9928C70.9101 22.7977 71.7552 24.0891 71.8254 25.7016Z" fill="#3D3D3D"/>
<path d="M102.925 24.5044C102.925 28.5552 99.6481 31.8396 95.6063 31.8396C91.5645 31.8396 88.2874 28.5552 88.2874 24.5044C88.2874 20.4535 91.5645 17.1692 95.6063 17.1692C99.6481 17.1692 102.925 20.4535 102.925 24.5044ZM98.689 27.0232C99.6746 25.5873 99.6727 23.7407 98.8313 22.2828C98.1925 21.1752 97.0436 20.5331 95.8764 20.448C94.5842 20.3538 93.3659 20.8477 92.5902 21.9069C91.6247 23.2257 91.5298 24.9973 92.2307 26.4607C92.812 27.6753 93.9746 28.4454 95.1911 28.5671C96.5691 28.7052 97.8814 28.1994 98.6899 27.0223L98.689 27.0232Z" fill="#3D3D3D"/>
<path d="M111.955 28.14C111.995 29.0948 111.974 29.9664 111.963 30.8801C110.441 31.8908 107.439 32.017 106.049 30.7411C105.351 30.1 104.935 29.1597 104.928 28.1646L104.881 20.674L103.225 20.6282C103.164 19.6194 103.177 18.6097 103.219 17.5972L104.884 17.5478L104.915 13.8921H108.406L108.434 17.5515L112.003 17.5807L112.013 20.6172L108.423 20.6676L108.439 27.2299C108.441 27.8957 108.886 28.3622 109.511 28.4244C111.012 28.5744 111.934 27.6662 111.954 28.14H111.955Z" fill="#3D3D3D"/>
<path d="M116.972 17.5597H113.433V31.4307H116.972V17.5597Z" fill="#3D3D3D"/>
<path d="M115.219 15.8786C116.443 15.8786 117.435 14.8844 117.435 13.658C117.435 12.4315 116.443 11.4373 115.219 11.4373C113.996 11.4373 113.004 12.4315 113.004 13.658C113.004 14.8844 113.996 15.8786 115.219 15.8786Z" fill="#3D3D3D"/>
</svg>
