<svg width="690" height="305" viewBox="0 0 690 305" fill="none" xmlns="http://www.w3.org/2000/svg">
<path d="M128.068 240.893H6.868L0 234.833L128.068 30.005H155.54V234.833H174.124L174.528 240.893H155.54V289.777L183.012 291.393C183.012 291.662 182.877 293.682 182.608 297.453L101.808 297.857C101.808 295.433 101.943 293.548 102.212 292.201L123.22 289.373C125.913 289.104 127.529 287.353 128.068 284.121V240.893ZM128.068 234.833V41.721L6.868 234.833H128.068Z" fill="#3D3D3D"/>
<path d="M634.068 240.893H512.868L506 234.833L634.068 30.005H661.54V234.833H680.124L680.528 240.893H661.54V289.777L689.012 291.393C689.012 291.662 688.877 293.682 688.608 297.453L607.808 297.857C607.808 295.433 607.943 293.548 608.212 292.201L629.22 289.373C631.913 289.104 633.529 287.353 634.068 284.121V240.893ZM634.068 234.833V41.721L512.868 234.833H634.068Z" fill="#3D3D3D"/>
<path d="M219.06 272.155C219.71 272.605 220.19 273.285 220.67 273.925C220.35 274.995 220.91 276.375 220.67 277.475C220.46 276.505 219.52 275.645 219.06 274.815C216.75 274.695 215.21 271.695 216.2 269.455L217.5 272.515C217.72 273.035 218.43 273.065 219.07 272.145L219.06 272.155Z" fill="#3D3D3D"/>
<path d="M463.55 103.455C464.67 104.875 464.22 105.375 462.75 104.345C462.15 102.505 461.89 100.245 461.97 97.585C458.41 93.955 458.49 94.045 462.17 97.865L461.99 103.455C462.04 102.435 462.29 102.725 462.75 104.325C463.45 104.575 463.44 104.875 462.75 105.215C462.42 106.225 462.95 106.825 464.36 106.985C465.04 106.925 466.15 107.775 466.32 108.315C466.67 109.415 465.07 109.365 465.97 106.985C467.23 107.045 469.79 106.505 470.41 107.895C472.52 112.635 468.28 114.515 466.44 117.345C464.44 120.425 466.56 125.635 466.63 129.245C466.69 132.565 467.25 137.205 469.97 138.715C472 139.835 474.67 138.435 476.43 138.955C476.54 140.545 474.54 140.595 473.19 140.525C471.78 143.035 465.7 145.285 463.59 143.345C462.89 144.155 462.14 144.525 461.81 143.375L458.93 143.275L450.64 138.185C444.06 135.755 437.99 133.155 432.44 130.385C432.58 136.645 434.11 142.735 437.04 148.665C440.64 151.055 443.89 153.845 446.79 157.035C448.03 164.335 449.94 171.405 452.52 178.235C453.61 181.265 453.53 183.555 452.28 185.085C453.19 187.555 452.85 187.615 450.78 186.495C449.47 188.495 445.04 187.905 445.11 185.035C442.43 184.605 439.72 184.575 437 184.915L436.4 186.825C409.85 195.725 441.28 201.835 451.2 202.805C459.85 208.065 469.12 212.255 479 215.345C480.6 216.025 481.6 216.725 481.19 218.805C481.83 219.335 482.77 220.155 482.61 220.785C481.04 226.525 477.23 230.625 472.19 232.665C473.08 233.995 473.77 235.435 474.35 236.945C479.49 250.325 479.43 254.445 468.46 263.985L465.35 274.415C456.39 295.915 432.68 280.635 423.12 267.485C421.35 267.405 419.57 267.455 417.78 267.645C413.04 269.545 406.7 272.065 401.73 272.985C394.33 274.365 385.02 275.145 378.68 270.425C375.21 271.465 372.08 270.995 369.27 269.005C361.63 262.015 353.13 257.505 343.76 255.475C338.12 254.095 333.02 251.555 328.48 247.875C326.53 250.815 323.86 253.015 320.96 254.695C324.96 264.665 320.19 278.045 309.62 278.285L308.39 281.505C308.7 293.405 298.58 304.715 287.45 300.255C283.23 301.805 278.93 303.385 274.54 305.005H263.28C260.92 303.515 258.47 303.905 256.04 305.005H239.95C237.9 304.645 236.83 303.465 236.73 301.455C236.27 300.028 236.27 300.028 236.73 301.455C238.64 302.935 237.57 304.115 233.51 305.005H231.9C228.96 304.025 226.61 302.805 228.73 299.185C226.4 296.725 225.51 293.295 228.17 290.835C225.15 288.795 222.15 286.675 220.07 283.415C218.62 281.135 216.01 276.185 219.03 274.825C219.96 274.505 220.49 275.395 220.64 277.485C221.74 278.345 222.55 279.815 223.05 281.925C225.24 281.525 225.68 281.125 224.37 280.715C224.7 274.615 225.29 280.485 225.09 280.835C224.8 281.365 223.76 281.175 223.05 281.035C222.24 280.365 221.77 279.345 221.65 277.975C222.04 274.735 221.7 273.385 220.64 273.935C219.2 274.455 218.33 273.665 219.03 272.165C217.03 270.835 217.96 268.725 221.82 265.865C220.32 265.325 219.63 264.375 219.78 263.005C219.62 261.545 219.88 260.685 221.12 260.365C236.38 256.705 250.28 248.935 262.15 237.595L263.96 237.725C263.55 235.445 264.72 234.155 266.69 235.485L267 233.335C273.65 231.115 279.99 228.155 286 224.435C288.51 223.175 290.6 219.105 287.91 217.135C280.66 211.825 270.54 215.555 263.48 219.545L261.56 218.065C260.84 217.905 260.87 217.625 261.58 217.245L260.05 216.125L262 195.625C261.54 192.845 261.76 190.565 262.64 188.775C260.45 188.775 260.49 187.915 262.52 187.025C264.14 183.745 267.76 180.575 270.65 178.805L270.1 176.885C277.29 171.605 277.35 163.525 277.17 154.665C277.12 152.265 276.55 151.605 274.89 153.175C271.4 157.825 267.43 161.865 262.98 165.305L261.02 164.495L260.88 165.555C255.27 168.525 250.54 172.755 246.68 178.255L244.89 178.015C245.65 179.575 245.16 180.025 243.86 179.025L242.25 180.355C237.13 179.925 232 179.475 226.89 178.975L213.06 169.475C211.27 168.915 210.05 167.965 209.4 166.665C207.25 168.055 206.77 168.335 207.79 165.605C208.87 165.275 209.74 163.125 211.9 163.765C210.35 161.295 209.74 159.165 208.82 156.345C208.56 155.545 210.03 154.835 210.64 154.855C213.85 155.005 212.76 162.405 214.65 164.895C216.69 163.795 218.25 163.065 219.77 161.905C218.06 154.765 219.9 157.675 222.3 153.145C223.64 151.855 224.63 150.425 225.27 148.845C224.93 151.195 223.94 152.625 222.3 153.145C220.2 151.045 223.64 148.575 223.76 147.405C224.13 144.155 217.61 149.725 211.38 149.245C209.32 149.085 207.27 146.985 207.09 145.395C206.91 143.805 207.39 140.055 208.69 139.255C219.27 132.825 204.68 129.325 225.52 124.335C220.65 123.595 215.06 121.035 212.85 115.645C210.85 110.745 213.5 106.555 216.93 103.565C217.23 97.985 211.58 99.285 212.7 94.315C212.86 93.605 213.46 92.745 214.47 92.205L218.9 89.815C218.75 86.975 220.99 85.125 222.38 83.365C222.08 76.435 225.81 69.565 232.6 67.855C235.46 67.135 235.33 64.505 236.36 62.115L240.74 51.945C242.19 52.135 242.13 53.495 241.54 54.605C242.72 55.655 241.48 58.565 239.93 58.155L240.86 59.655C241.42 58.005 241.65 56.325 241.54 54.605C240.98 54.065 241.19 53.315 241.59 52.605C242.88 50.265 245.32 51.185 241.94 52.325C241.61 52.435 241.19 52.235 240.75 51.945C246.27 39.135 253.83 51.265 260.98 37.025C260.44 30.535 262.5 19.895 268.94 17.155C276.98 13.755 278.33 21.425 281.34 18.755C296.12 5.70501 293.57 18.965 299.44 13.745C301.02 12.345 302.92 13.525 304.8 14.525C305.41 10.335 307.65 4.67501 311.96 2.80501C316.27 0.935011 320.35 10.025 322.76 9.07501C323.36 8.83501 323.77 7.73501 324.38 7.55501C324.78 7.43501 328.92 0.765011 334.81 0.0850107C342.78 -0.844989 349.82 6.01501 354.25 12.855C368.82 13.955 361.46 14.155 368.72 8.53501C373.37 4.92501 379.59 6.25501 383.32 10.855C385.38 13.395 386.58 16.495 387.33 19.925C391.24 19.555 394.29 16.525 397.87 15.085C401.22 13.745 403.66 17.975 405.58 19.925C416.15 30.565 408.29 31.485 411.11 33.775C411.57 34.145 412.73 35.715 413.31 34.945C416.29 30.915 420.32 30.475 424.14 33.315C433.56 40.335 426.85 41.975 436.43 51.135C434.74 52.725 432.09 55.395 433.33 57.725C436.57 63.785 440.37 63.215 446.72 71.445C447.91 72.995 449.92 73.515 450.48 75.015C451.29 77.185 449.74 79.505 450.25 81.145C451.12 83.955 451.82 86.175 451.63 89.265C454.23 84.925 454.77 80.725 452.38 76.545C457.78 79.345 454.96 84.985 454.05 89.475C453.67 91.315 457.07 93.585 458.63 93.645C460.9 93.725 463.99 94.115 464.58 96.615C465.1 98.785 463.58 101.375 463.5 103.465L463.55 103.455ZM326.19 16.945C328.87 12.665 331.43 10.255 335.59 11.165C337.67 6.96501 341.27 6.24501 345.38 6.58501C340.29 1.34501 331.7 1.91501 327.2 7.85501C325.54 10.045 324.76 12.255 321.87 12.345C324.36 13.195 324.6 15.015 326.2 16.935L326.19 16.945ZM317.85 9.40501C316.85 7.23501 314.95 4.92501 313.13 5.22501C309.53 5.82501 307.05 10.235 306.92 13.925C310.01 9.51501 313.41 8.64501 317.85 9.40501ZM382.12 13.905C380.15 7.31501 373.08 6.95501 369.15 10.985C374.16 10.695 377.81 11.275 382.12 13.905ZM334.55 14.915C335.72 14.145 336 12.355 335.24 12.255C332.13 11.795 329.87 13.405 328.39 16.445C330.59 16.035 332.72 16.125 334.54 14.915H334.55ZM377.43 16.905C378.96 17.025 380 15.255 382.16 16.295C377.66 12.235 371.42 11.075 365.81 14.225C366.38 15.735 368.52 16.785 369.29 16.275C372.2 14.335 374.71 16.695 377.43 16.905ZM362.03 14.805C359.51 14.765 357.49 14.235 355.99 14.995C355.35 15.825 356.34 18.615 357.2 18.945C359.39 18.885 361.82 17.265 362.03 14.805ZM366.27 17.225C366.45 16.455 364.12 16.005 363.45 15.965C362.77 15.925 362.65 17.875 361.46 18.675C362.92 19.455 365.65 19.865 366.28 17.235L366.27 17.225ZM401.98 18.785C400.39 15.475 397.66 16.345 395.91 18.045C398.31 18.085 399.75 18.535 401.98 18.785ZM375.71 18.395C374.01 16.595 371.67 17.205 370.27 17.655C371.28 19.295 372.14 19.775 373.1 20.055C374.11 20.355 375.91 19.475 375.71 18.385V18.395ZM371.02 20.575C369.82 18.735 369.08 18.285 368.24 18.175C367.35 18.055 366.72 18.725 366.21 19.805C368.27 19.965 369.43 21.425 371.02 20.585V20.575ZM386.55 26.865C388.21 27.545 388.87 28.395 389.96 27.975C391.05 27.555 390.23 25.315 389.19 23.535C388.27 24.755 386.99 25.445 386.54 26.865H386.55ZM263.86 37.895C265.86 34.565 265.21 30.705 263.58 27.745C261.62 30.985 262.04 34.615 263.86 37.895ZM428.83 42.865C428.81 39.235 426.39 36.285 423.14 34.405C419.68 32.395 415.63 32.815 413.59 36.805C426.13 36.645 419.86 41.035 428.83 42.865ZM422.29 41.485C419.77 38.345 416.16 38.275 413.46 38.975C411.29 41.735 420.31 43.525 420.2 43.575C420.84 43.305 422.85 42.185 422.29 41.485ZM428.95 45.315C427.87 45.025 427.29 43.815 425.84 43.945C425.84 46.335 425.25 47.875 426.38 49.795C428.05 48.495 427.62 46.795 428.96 45.315H428.95ZM432.99 49.975C431.53 48.145 430.79 47.245 430.15 45.665C429.37 47.545 429.06 48.675 428.09 50.025C430 50.265 431.17 50.385 432.99 49.975ZM252.15 49.265C253.44 47.385 252.7 45.725 251.31 47.115C250.33 48.845 248.58 48.345 247.96 50.035C249.34 49.925 251.41 50.365 252.16 49.265H252.15ZM254.78 51.705C256.44 51.365 256.58 48.035 255.57 46.865C255.03 48.825 254.02 49.185 253.69 49.795C253.43 50.265 254.16 51.835 254.79 51.705H254.78ZM432.35 52.185C431.62 51.675 429.83 51.765 428.99 52.335C429.9 53.345 430.44 54.305 431.04 54.605C432.05 55.125 432.7 53.525 432.35 52.185ZM361.45 65.395C356.08 62.915 359.48 67.115 350.99 64.515C349.16 67.855 346.34 69.085 343.66 70.665C333.24 76.835 328.15 66.085 327.69 65.945C323.91 64.805 325.89 70.135 318.14 73.525C314.29 75.215 307.57 75.965 305.31 80.245C302.45 85.655 302.38 92.615 299.05 97.745C297.55 100.045 296 101.855 295.33 104.255C294.94 105.665 294.01 106.975 295.52 108.845C297.03 110.715 295.59 113.695 296.49 115.725C297.48 117.975 300.09 119.025 300.42 122.145C301.85 121.165 302.9 120.085 302.62 118.535C304.08 117.835 303.03 122.595 305.13 122.985C303.81 123.965 305.01 126.385 304.33 127.425C303.53 128.635 304.47 130.275 303.97 131.575C302.37 135.775 297.79 145.915 303.97 149.165C307.61 151.075 309.82 154.455 311.43 158.585L316.25 170.935C316.6 171.855 316.25 173.085 317.24 174.065C317.87 174.695 319.14 174.395 320.01 173.625L322.78 178.965C323.51 180.375 326.35 180.665 327.65 180.695L333.07 185.345C334.07 186.195 334.36 188.165 335.67 187.895C336.07 191.165 337.54 194.385 339.71 197.335C341.25 194.805 341.96 193.355 343.73 192.515C344.24 192.515 344.99 192.585 345.15 193.015C345.43 193.745 345.3 194.475 345.27 195.015C344.69 196.275 344.14 199.435 344.63 200.745C345.56 203.185 348.17 203.965 349.43 205.535C350.89 207.345 352.17 209.325 353.45 211.665C353.9 210.495 353.45 209.105 354.56 208.515C355.19 208.185 356.36 208.405 357.05 208.925C356.67 210.055 357.79 211.745 357.73 213.425C359.16 212.755 360.22 211.895 361.51 211.055C360.8 207.845 359.77 205.445 358.57 202.655C357.73 200.705 358.83 197.975 357.91 196.265C356.46 193.535 356.14 191.165 355.87 188.325C355.48 184.115 356.74 181.985 359.25 179.005C360.72 177.245 360.3 173.445 362.35 171.965C365.54 169.645 369.32 168.635 371.78 165.745C374.71 165.905 377.82 164.425 380.74 164.815C382.77 165.885 384.87 167.945 387.24 166.525C387.96 167.025 388.78 167.365 389.56 166.645C391.14 168.895 393.9 168.365 396.07 167.245C397.02 166.755 398.02 165.345 399.21 165.525C401.09 165.815 402.14 164.505 403.28 163.035C403.8 163.135 404.34 163.805 404.85 163.825C408.45 163.585 411.79 165.255 415.32 165.675C419.19 169.505 423.19 173.045 424.36 179.865C426.27 178.685 427.14 176.335 426.88 173.865L425.08 156.715C424.16 147.995 422.38 139.605 419.76 131.415C418.14 126.405 418.18 107.425 410.1 96.815C408.07 95.315 405.62 98.535 404.08 99.075C402.37 99.685 401.26 100.135 400.75 102.585C400.16 105.345 396.81 105.625 394.91 106.775C392.89 107.995 391.02 110.335 388.36 108.025C386.74 106.595 389.24 102.485 389.68 100.045C391.41 90.205 395.19 92.385 402.45 90.205C403.82 90.175 404.82 91.535 406.43 91.805C407.72 92.015 408.02 91.725 408.22 90.595C408.38 89.665 407.63 89.765 407.31 89.135C406.74 88.035 406.08 86.895 405.63 85.735C403.94 81.365 400.88 80.605 398.73 70.975C386.98 68.875 388.41 58.655 375.43 60.275C372.06 65.665 366.93 67.915 361.47 65.395H361.45ZM238.57 65.485C236.97 66.565 238.18 67.035 238.33 67.845C238.51 68.845 239.61 69.015 240.1 68.375C240.88 67.345 241.06 66.255 240.72 65.705C240.24 64.935 239.07 65.155 238.57 65.495V65.485ZM237.88 72.195C238.62 70.705 237.55 69.205 236.25 67.905L232.49 76.875C235.1 76.815 236.64 74.685 237.88 72.195ZM241.29 72.965C242.75 71.655 243.66 69.835 242.15 69.015C240.87 68.315 239.92 70.035 239.88 71.045C239.84 71.935 240.28 73.865 241.29 72.965ZM233.75 69.945C228.27 71.555 224.24 76.405 224.22 83.035C231.47 82.435 228.95 78.775 233.75 69.945ZM233.61 84.155C233.67 82.725 232.08 82.495 231.95 83.785C231.83 84.885 230.64 85.455 231.12 86.175C231.6 86.895 232.62 86.665 233.13 86.565C233.64 86.465 233.55 85.625 233.61 84.165V84.155ZM222.12 85.425L220.26 87.475L221.96 89.345L223.82 87.295L222.12 85.425ZM215.73 97.135C215.71 95.295 216.78 94.455 216.98 92.805C215.36 93.085 214.8 94.015 213.34 94.735C213.93 95.655 214.29 96.325 215.73 97.135ZM223.16 95.075C221.66 93.885 219.48 94.405 218.18 95.815C217.08 97.005 217.26 98.925 218.79 100.805C218.71 97.995 220.25 96.115 223.15 95.075H223.16ZM459.7 100.365C458.77 96.425 457.35 95.855 454.87 94.385C455.94 96.945 456.94 100.495 459.7 100.365ZM454.02 100.595C455.52 100.725 455.9 98.285 455.15 97.305C454.56 96.535 453.05 94.395 452.42 96.005C451.62 98.055 452.07 100.425 454.02 100.595ZM459.09 109.765C459.64 107.055 460.56 103.405 458.04 101.505C458.08 104.545 458.77 106.775 459.09 109.765ZM454.71 109.675C454.89 110.055 455.1 110.335 455.34 110.465C456.89 111.395 458.08 103.845 456.27 103.785C454.34 105.835 456.8 108.495 454.73 109.665C454.68 108.045 454.89 106.455 454.63 104.505C452.54 103.715 449.64 104.535 449.1 107.145C449.96 108.635 452.69 109.355 454.71 109.675ZM222.25 120.865C220.38 115.765 218.87 112.765 220.83 108.755C220.81 107.925 220.03 106.415 218.88 107.095C217.09 108.155 214.48 111.655 214.54 114.125C215.71 117.575 219.43 120.155 222.24 120.865H222.25ZM222.1 110.025C221.21 114.975 222.51 120.125 226.2 122.615C223.8 113.705 227.3 111.765 222.1 110.025ZM232.6 121.695C231.24 119.215 228.69 119.535 227.59 116.175C226.51 117.535 227.71 119.565 228.14 120.765C228.73 122.435 231 122.685 232.6 121.705V121.695ZM224.08 128.345C223.81 126.585 221.03 128.115 219.95 129.645C220.92 130.565 223.61 130.315 224.08 128.345ZM216.26 135.215L217.53 128.295C214.96 129.205 215.15 131.805 214.7 134.225C213.61 135.975 214.31 136.715 216.26 135.215ZM461.86 136.265C464.53 136.375 465.9 133.605 464.8 130.915C464.15 132.925 463.17 134.345 461.86 136.265ZM466.38 135.795C466.09 134.615 464.74 136.085 464.24 136.665C463.7 137.295 462.98 138.295 464.1 139.025C465.48 139.905 466.07 139.455 466.96 138.935C467.85 138.415 466.8 137.555 466.36 135.795H466.38ZM219.73 144.005C217.96 141.275 218.13 138.475 217.08 136.555C215.4 136.975 213.76 138.875 213.54 140.485C213.34 141.985 214.18 143.275 215.42 144.385C216.4 145.265 218.02 144.345 219.72 144.005H219.73ZM224.78 142.855L219.17 136.145C220.1 141.775 220.01 143.945 222.98 144.625C223.54 144.745 223.7 144.135 224.77 142.855H224.78ZM215.75 146.655C213.39 145.115 212.65 143.985 212.04 142.525C211.44 141.065 212.77 139.915 212.55 138.225C209.62 138.725 207.59 143.435 209.28 146.165C210.66 148.385 214.72 148.105 215.75 146.655ZM227.61 157.225L226.93 153.505C225.18 154.455 222.49 154.985 221.09 156.935C220.1 158.315 220.24 161.295 221.77 161.275C224.01 161.245 227.66 157.425 227.62 157.225H227.61ZM392.1 177.245C391.38 177.025 390.74 176.485 389.93 175.775C389.08 175.025 388.22 175.455 387.9 176.205C386.67 177.085 385.17 177.135 383.74 177.265C382.61 177.195 381.52 177.375 380.3 177.145C379.3 176.965 379.05 175.685 378.62 174.425C377.08 177.255 374.88 176.905 372.91 177.865C371.47 178.555 370.69 180.385 368.65 180.225C366.44 183.675 362.73 185.225 363.37 189.445C363.97 193.445 361.82 194.695 364.69 195.805L366.32 195.935C366.84 197.255 368.77 196.705 369.46 197.515C370.94 199.215 372.85 197.515 375.05 199.195C372.32 200.275 369.69 200.645 367.85 202.895C369.12 205.955 369.24 208.745 370.4 213.365C373.24 210.075 375.4 210.205 378.2 210.375C383.57 210.705 388.37 207.595 393.41 206.445C399.81 204.985 407.66 204.795 412.76 199.265C415.21 198.725 413.29 196.685 416.91 186.825C417.26 185.885 416.86 184.275 416.33 183.445C415 181.365 415.38 185.415 410.08 178.265C409.03 176.855 408.96 174.435 407.43 173.755C405.73 172.995 404.56 174.545 402.91 174.905L392.1 177.225V177.245ZM231.93 278.285C230.92 276.195 228.42 276.815 227.06 277.995C229.36 278.515 229.59 280.925 231.37 279.955C231.66 279.805 232.27 279.005 231.92 278.285H231.93ZM234.84 292.995C233.92 294.875 233.31 294.275 233.56 292.785C234.1 291.845 234.43 291.125 234.35 290.615C234.21 289.705 232.51 289.715 231.45 290.015C231.7 291.965 232.47 294.535 234.23 296.595C234.83 297.305 236.57 295.595 236.5 294.805C236.44 294.145 235.55 291.965 234.84 292.995ZM233.66 298.565C232.51 295.755 231.63 294.355 230.05 292.715C228.83 295.875 231.05 298.015 233.66 298.565Z" fill="#3D3D3D"/>
<path d="M465.16 106.115C463.86 107.055 462.55 107.185 462.75 105.225V104.335C463.17 104.235 463.41 103.865 463.55 103.445C465.42 103.155 464.57 100.755 465.75 98.675C468.03 101.045 465.81 103.695 465.16 106.115Z" fill="#6E6E6E"/>
<path d="M463.58 92.705C460.65 90.215 458.96 88.145 455.42 88.005C458.75 86.405 462.65 88.705 463.58 92.705Z" fill="#3D3D3D"/>
<path d="M324.42 7.56501C322.84 4.84501 320.85 3.34501 320.37 0.365011C322.85 2.09501 324 4.90501 324.42 7.56501Z" fill="#3D3D3D"/>
<path d="M554 188.465V191.155C553.62 191.025 553.16 192.085 553.27 192.845C554 197.895 552.28 201.835 551.42 206.285C549.82 214.565 546.46 225.015 541.87 230.955C540.42 232.825 539.74 235.745 537.63 236.675C535.52 237.605 534.8 236.465 533.42 234.745C531.27 232.085 506.44 220.995 505.28 221.045L499.95 221.305C496.09 221.495 492.25 221.405 488.49 220.435C485.7 220.545 486.82 212.335 488.94 211.365C491.52 211.575 494.11 211.495 496.7 211.145C495.57 206.145 497.91 204.555 501.15 204.275C501.25 201.895 499.31 201.075 495.33 201.805C493.36 201.655 492.62 200.775 492.09 198.145C490.67 191.015 496 189.965 499.76 190.145C500.05 190.165 496.64 184.125 495.78 184.845C492.42 181.455 489.39 178.125 490.85 171.745C486.27 166.395 483.96 157.635 486.42 149.705L485.38 149.115C485.85 148.335 485.44 147.835 484.15 147.625C481.16 153.745 475.22 158.725 477.58 147.325L476.42 148.345C475.62 151.715 474.3 154.485 472.47 156.635C473.54 160.505 473.45 163.645 472.2 166.035C472.1 167.075 470.78 166.195 470.85 166.225C473.34 167.325 482.01 181.045 478.39 186.225C476.66 189.935 473.98 188.945 470.35 183.275C463.27 180.455 461.98 171.945 461.17 163.345C456.83 153.975 457.15 147.325 465.14 142.915C465.94 142.165 466.05 141.585 465.46 141.175C464.49 142.235 463.69 142.625 463.74 140.705C464.66 140.635 465.53 139.475 466.36 139.125C470.58 137.335 473.52 132.675 476.37 127.775C477.92 125.105 480.73 124.335 482.63 121.985C487.67 123.595 491.72 127.345 495.06 132.655C496.82 135.465 499.1 137.195 500.88 139.885L513.61 159.065C516.13 162.875 534.22 172.295 538.76 174.665C540.86 175.765 553.23 184.855 553.98 188.445V188.475L554 188.465Z" fill="#F5CDBE"/>
<path d="M463.76 140.735C464.31 140.925 464.9 141.215 465.48 141.205L465.78 142.075C463.53 144.225 461.27 146.345 459 148.425C458.36 153.555 458.86 158.835 460.53 164.265C463.09 173.495 464.38 178.115 464.38 178.115C468.19 181.485 471.91 185.075 475.53 188.875C483.62 184.455 476.7 173.915 472.8 168.275C472.55 167.855 472.46 167.605 472.81 167.075C473.36 162.805 473.09 159.205 472.27 155.085C473.65 154.935 474.24 155.335 474.02 156.315L479.41 156.275C479.71 156.015 479.19 155.805 477.84 155.655C476.13 157.335 471.34 156.315 474.43 154.005C475.15 151.055 476.2 148.835 477.58 147.355C479.4 147.445 477.12 150.905 478.16 152.835C485.07 148.925 481.87 143.525 486.49 148.045C486.87 148.415 487.39 147.205 487.27 146.915C487.13 146.585 486.41 146.235 486.48 144.865C487.47 144.395 487.83 146.375 488.15 147.315C488.9 149.505 482.39 157.555 492 171.345C490.66 176.655 494.21 183.875 498.28 183.765C498.9 185.135 499.43 187.385 500.04 188.275C500.89 189.515 502.17 188.565 503.61 189.105C504.68 189.505 503.77 191.235 503.39 191.755C502.31 193.245 498.02 190.775 495.02 192.285C493.47 193.055 492.66 199.155 494.09 199.715C496.57 200.685 498.98 199.365 501.2 200.675C502.45 201.415 502.6 203.325 502.32 204.765C501.83 207.265 498.54 205.265 497.71 208.075C497.24 209.645 498.85 210.745 497.59 212.415C496.19 214.275 491.63 211.175 488.92 213.345C487 214.895 487.84 218.345 488.48 220.435C487.41 220.155 486.24 220.945 485.14 220.455C484.43 219.245 484.43 217.555 485.14 215.385C484.4 207.985 485.62 205.065 488.8 206.605C489.57 210.675 494.22 210.015 490.61 206.165C487.81 204.885 486.34 202.845 486.23 200.055C487.42 191.695 485.46 190.995 480.33 197.935L479.35 197.535C477.32 193.745 475.86 193.775 474.98 197.605C481.61 199.465 481.42 207.225 475.77 211.315C477.34 212.605 479.09 215.115 478.92 217.695C481.74 217.345 483.18 218.305 483.24 220.565C476.96 221.375 476.46 219.305 470.23 219.785C467.45 216.995 463.97 215.965 460.51 214.295L451.47 209.955C448.97 208.745 446.93 205.325 444.16 204.765C441.08 204.155 422.05 202.185 424.63 193.275C426.23 187.755 430.89 186.355 434.55 185.555C436.74 185.205 440.33 184.085 442.5 184.505C443 184.505 444.11 183.815 445.5 185.005L448.5 187.505C451.64 193.005 455.29 196.465 460 199.005C461.92 200.045 464.54 202.115 466.46 201.105C465.92 200.745 465.95 200.425 466.54 200.155L467.2 199.375C464.15 195.395 461.02 191.565 457.8 187.885C453.85 182.875 451.31 176.135 451.41 168.725C449.79 164.655 447.78 158.115 448.82 153.485C449.62 149.255 452.01 145.955 455.99 143.575C458.53 142.375 461.03 140.945 463.73 140.725H463.76V140.735Z" fill="#F5CDBE"/>
<path d="M458.008 143.069L458.297 143.972C454.503 146.211 451.739 149.291 449.993 153.203C450.91 158.901 451.99 164.425 453.259 169.774C454.604 177.32 457.719 183.747 462.594 189.055L473.5 199.764L473.085 201.119L472.985 202.095C470.346 203.44 468.776 203.203 466.2 201.982C461.3 199.651 450.897 192.454 447.92 187.546C447.794 187.341 448.033 186.858 448.372 186.304C447.153 182.31 447.229 177.515 445.08 173.48C442.454 168.531 442.643 162.515 441.122 157.258C428.006 146.529 433.597 153.788 428.332 140.903C426.385 136.149 425.945 131.046 427.227 126.005C430.468 128.284 433.056 130.625 436.625 131.703C444.477 134.085 451.814 137.72 458.021 143.038L458.008 143.069Z" fill="#F5CDBE"/>
<path d="M467.3 200.385C463.69 204.785 461.48 200.155 456.58 196.775C446.78 190.035 450.82 190.135 446.5 186.425L447.71 185.005C448.38 187.695 450.66 190.395 452.47 191.845L462.43 199.825C463.96 201.045 465.87 200.065 467.3 200.395V200.385Z" fill="#E08E58"/>
<path d="M456.03 143.585C455.96 145.555 449.24 148.285 448.86 153.495C448.67 154.275 448.46 154.265 448.2 153.495C449.01 146.495 453.61 146.745 454.58 143.615C455.02 143.475 455.59 143.785 456.01 143.585H456.03Z" fill="#E4AC8C"/>
<path d="M441.12 185.685C438.94 185.805 436.74 185.975 434.58 185.565C436.83 185.075 438.91 184.075 441.12 185.685Z" fill="#F4F4F4"/>
<path d="M485.15 220.465C484.64 220.235 483.8 220.505 483.26 220.585C481.86 219.195 479.93 220.285 478.05 218.825C477.62 215.715 476.38 213.315 473.95 212.155C474.81 209.135 476.5 208.635 477.92 207.035C479.03 205.775 478.74 202.825 478.1 201.445C477.37 199.875 475.25 200.135 473.84 199.165C473.04 197.925 474.74 193.615 476.05 193.045C478.07 192.175 478.99 194.755 480.3 196.625C481.25 194.455 485.3 188.505 487.43 192.965C487.14 190.465 489.14 188.345 489.58 185.895C490.03 183.445 486.88 183.075 486.23 181.805C485.26 179.935 485.85 176.775 487.06 175.075C489.99 181.725 489.4 184.195 492.92 189.145C492.83 191.915 489.62 193.215 487.86 192.915C487.83 196.255 487.24 198.985 487.74 202.255C490.16 203.635 493.13 205.135 493.5 209.405C493.65 211.095 491.24 211.085 490.16 210.965C489.03 210.845 488.34 209.595 487.76 207.195C484.64 208.455 488.18 214.795 485.15 220.475V220.465Z" fill="#F5CDBE"/>
<path d="M472.22 166.045C473.01 165.315 473.02 165.815 472.82 167.055C475.62 173.985 481.32 175.935 479.37 185.195C478.91 187.375 476.22 191.435 474.45 189.095C472.15 186.045 470.35 183.345 467.06 181.815C465.34 181.015 463.26 178.025 462.79 175.695L460.52 164.265C460.22 163.465 460.47 163.195 461.17 163.365C463.64 171.095 461.81 177.585 468.95 181.545C473.65 184.145 475.49 191.365 477.73 186.345C479.43 182.535 478.62 178.535 476.54 175.215L471.79 167.615C471.06 166.455 469.14 167.315 468.94 165.215C470.32 164.895 471.2 165.835 472.2 166.055L472.22 166.045Z" fill="#E18E59"/>
<path d="M533.89 231.235C535.4 221.675 538.67 214.305 541.58 206.325C543.6 200.775 545.43 195.345 548.92 191.135L538.28 219.535C536.74 223.635 535.97 228.035 533.89 231.245V231.235Z" fill="#E57D31"/>
<path d="M461.19 163.355C460.95 163.625 460.74 163.925 460.54 164.255C458.65 159.955 457.25 153.265 458.57 148.035C460.36 145.205 464.13 144.435 465.49 141.195C465.87 141.195 466.34 140.495 467.05 141.255C464.21 147.125 457.09 145.785 459.13 154.385C459.89 157.585 460.32 160.625 461.19 163.365V163.355Z" fill="#E19A72"/>
<path d="M477.59 147.345C476.04 149.795 475.27 152.765 474.03 156.165C475.71 155.885 476.77 155.575 477.85 155.645L479.41 156.265C477.53 157.555 475.27 156.955 472.86 156.055C473.18 160.375 474.24 163.955 472.81 167.075C472.67 166.725 472.24 166.545 472.21 166.065C473.96 158.505 471.65 158.565 471.3 152.285C472.16 153.495 472.62 154.635 473.27 154.435C476.09 153.545 474.73 146.285 477.58 147.365V147.345H477.59Z" fill="#DE9568"/>
<path d="M510.52 194.745C509.94 195.155 509.75 194.815 509.87 193.845C513.46 190.565 515.87 185.615 518.51 179.845C520.78 182.135 511.42 193.575 510.51 194.745H510.52Z" fill="#DE8453"/>
<path d="M511.62 200.735C510.1 205.145 508.88 208.935 507.48 213.685C507.29 209.215 508.43 203.985 511.62 200.735Z" fill="#DB9F7F"/>
<path d="M510.52 194.745C509.08 196.605 508.16 199.125 505.87 199.185C507.05 196.695 508.67 195.715 509.87 193.845C510.06 194.175 510.28 194.475 510.52 194.745Z" fill="#E5AB89"/>
<path d="M434.08 195.915C433.47 195.265 433.52 193.795 432.96 193.995C431.4 194.535 432.69 197.815 430.36 197.875C428.86 197.915 428.6 196.965 428.53 194.865C428.31 188.255 431.85 191.935 436.98 187.205C438.18 188.015 439.96 189.015 441.34 189.685C442.85 190.425 442.57 193.235 442.05 194.705C440.98 197.735 434.76 196.645 434.07 195.915H434.08Z" fill="#F5CDBE"/>
<path d="M466.58 200.175C462.05 192.345 458.62 191.745 453.31 181.615C451.36 177.895 451.73 173.265 450.8 169.625C450.62 168.955 450.87 168.675 451.45 168.725C453.61 185.345 458.99 188.085 468.05 198.625C469.86 199.865 471.93 195.235 472.16 193.125C472.46 190.395 471.15 188.085 469.47 185.875C472.14 185.855 472.84 189.055 473.05 192.035C473.24 194.765 472.45 198.105 470.91 199.285C469.83 200.115 467.85 201.695 466.58 200.175Z" fill="#E18244"/>
<path d="M453.14 200.995C453.7 202.045 452.72 204.705 451.76 205.505C450.81 206.305 447.98 205.325 447.38 204.025C446.56 202.245 444.6 194.565 447.24 194.675C450.96 194.815 446.72 202.135 453.13 201.005L453.14 200.995Z" fill="#F5CDBE"/>
<path d="M496.18 187.255C496.49 188.455 496.06 189.975 495.68 188.825C491.71 185.245 490.51 179.935 488.69 174.795L482.34 156.865C488.14 163.345 490.23 183.705 496.18 187.235V187.255Z" fill="#E0905E"/>
<path d="M454.46 205.605C462.6 209.375 461.74 202.985 464.51 205.815C465.46 206.785 465.31 209.605 464.21 210.945C462.98 212.445 461.69 212.105 460.55 209.825C460.01 208.745 458.32 209.435 457.32 209.555C455.48 209.785 453.36 206.945 454.46 205.615V205.605Z" fill="#F5CDBE"/>
<path d="M484.29 188.915C484.22 190.095 482.55 189.145 482.15 188.635C480.75 186.825 480.94 180.355 481.71 179.145C483.36 176.585 484.38 187.295 484.29 188.905V188.915Z" fill="#F5CDBE"/>
<path d="M501.44 203.015C501.44 206.265 489.62 202.265 490.22 200.055C494.46 200.785 497.68 203.125 501.44 203.015Z" fill="#E5A77F"/>
<path d="M451.45 168.735C451.21 169.005 451 169.305 450.8 169.635C449.48 164.475 447.54 159.205 448.2 153.495H448.86C448.49 158.685 450.8 163.735 451.45 168.735Z" fill="#E09C69"/>
<path d="M479.42 156.265C479.01 156.425 477.74 156.445 477.86 155.645C482.46 155.945 481.49 151.855 485.17 148.185C484.75 151.915 481.41 155.465 479.43 156.265H479.42Z" fill="#DE9568"/>
<path d="M470.9 205.055C469.64 205.865 468.17 207.535 466.63 205.515C467.84 203.945 468.9 204.455 470.9 205.055Z" fill="#F5CDBE"/>
<path d="M217.4 158.825C217.61 159.485 218.28 160.125 218.83 160.005L218.97 161.625C221.3 162.985 233.51 171.765 234.27 173.195C235.31 175.135 235.06 177.715 233.49 178.765L224.23 181.515C224.27 185.785 222.01 187.795 217.45 187.545C218.3 190.365 219.49 192.605 221.01 194.275C222.65 197.655 218.79 209.195 217.25 212.885C217.18 216.805 216.41 218.715 214.24 221.015C215.23 225.725 214.2 230.305 211.19 234.745L213.67 234.815C215.33 231.565 217.5 228.915 220.18 226.845C216.17 221.125 218.3 212.035 221.73 206.705C220.44 199.895 227.8 193.915 228.89 202.495C235.02 202.005 233.56 212.715 228.89 214.145C227.31 211.725 224.87 216.305 225.07 217.925C225.21 219.075 232.71 233.985 233.32 233.495C235.8 226.915 238.73 231.985 239.08 237.315C242.64 239.235 246.18 240.605 249.68 241.445C253.23 239.415 256.48 236.215 259.44 231.855C260.88 228.435 267.44 234.245 268.04 235.955C268.39 236.925 267.84 238.415 267.3 239.215C266.34 241.615 264.69 243.915 262.63 245.335C259.21 247.685 256.22 250.575 253.08 253.565C241.12 265.005 235.58 262.065 228.07 267.395L227.56 269.465L208.79 274.875L185.54 293.295C183.12 296.515 180.59 299.465 177.97 302.165C173.29 302.325 167.42 294.815 164.12 290.165C157.99 281.525 152.15 267.705 151.01 255.815V249.885L163.29 235.105L176.1 223.365L180.91 218.205C185.14 213.655 189.22 210.085 191.79 203.395C194.36 196.705 197 189.715 200.13 183.465L208.33 167.085C210.6 162.555 213.95 160.155 217.42 158.835H217.4V158.825Z" fill="#F5CDBE"/>
<path d="M264.65 157.605C267.74 156.805 266.41 161.295 264.18 163.325C259.67 162.945 252.07 176.155 260.23 173.485C264.8 176.275 268.12 175.035 272.01 171.035C273.42 171.175 273.69 171.395 273.2 173.565C271.04 176.775 269.46 182.055 265.98 182.725C264.1 181.258 264.1 181.258 265.98 182.725C266.14 183.315 265.91 184.115 266.09 184.665C265.88 186.905 265.06 189.075 263.64 191.145C263.51 196.795 262.54 201.845 260.74 206.305C262.21 209.435 263 212.535 263.1 215.625C263.81 214.465 264.53 215.075 265.14 216.395C265.12 216.685 265.13 217.015 265.13 217.305C265.77 217.395 265.78 217.705 265.22 218.195C264.7 220.248 264.7 220.248 265.22 218.195C265.65 217.405 267.04 217.345 267.66 217.945C268.12 218.405 270.29 231.675 270.42 233.275C270.53 234.495 270.09 235.665 269.68 236.705C268.91 237.275 268.29 239.105 267.26 239.195C266.32 239.535 267.3 236.755 266.85 236.645C265.17 236.225 263.62 234.135 262.64 232.465C259.71 232.465 257.23 236.865 254.94 239.415C252.45 242.195 247.74 244.445 244.93 242.215C242.82 240.535 240.22 239.745 238.07 238.945C237.07 237.635 237.59 231.745 235.27 232.185C234.92 233.185 233.77 237.615 232.65 235.615L227.28 226.065C226.1 223.975 224.03 220.855 223.62 218.175C223.3 216.075 225.48 212.435 226.7 211.495C227.35 210.985 228.91 212.685 229.56 212.045C230.9 210.695 231.69 206.745 231.55 205.895C231.14 203.515 228.28 205.265 227.61 203.655C227.3 202.905 227.54 201.605 227.07 200.615C226.21 198.795 224.89 201.165 224.06 201.545C222.45 202.295 223.05 205.285 223.46 207.195C220.06 210.225 216.66 224.165 222.77 226.365C220.28 229.575 217.62 231.085 215.42 234.315C215.09 234.795 215.26 235.985 215.08 236.315C214.85 236.745 210.64 237.415 210.02 235.895C208.28 231.645 215.08 229.855 212.89 221.675C212.22 219.165 215.57 217.645 215.55 216.005C215.51 212.655 215.9 211.625 217.1 208.955C218.63 205.575 219.38 199.565 220.33 195.925C219.97 195.105 218.34 194.665 217.91 194.375C217.27 193.945 218.14 192.185 217.62 191.195C216.96 189.955 215.96 189.365 215.97 188.005C216 183.455 220.9 185.675 222.03 184.995C223.02 183.995 222.32 180.115 223.56 179.235C225.44 180.055 233.39 176.555 233.22 176.925C234.95 173.215 227.31 169.335 226.46 168.775C223.77 167.025 221.66 163.305 218.33 163.205C217.97 163.205 217.25 161.585 217.43 161.245C217.67 160.785 218.52 160.465 218.81 159.955C222.64 159.095 229.11 171.245 236.67 172.285C241.01 172.885 245.52 171.875 249.42 173.755C250.01 173.965 250.29 173.545 250.33 172.635C251.67 169.535 254.29 167.785 256.13 165.065C258.73 161.215 261.74 159.755 264.65 157.585H264.67L264.65 157.605ZM243.11 178.615C244.58 178.855 245.98 179.645 246.57 181.305C248.11 185.635 246.05 188.875 246.68 197.425C244.53 200.665 248.44 211.905 241.91 217.495C238.89 220.085 237.35 224.335 235.23 227.905C232.95 228.555 231.47 224.775 230.75 222.695C228.84 217.065 234.87 210.535 234.37 205.535C231.91 210.335 225.75 222.235 232.56 228.575C233.56 229.505 234.99 229.185 236.12 228.895C237.05 228.655 237.33 226.515 237.86 224.805C238.9 221.465 241.59 219.835 243.36 217.625C247.44 212.545 247.34 205.815 247.39 198.395C247.43 191.855 251.1 179.935 243.82 177.615C241.4 176.845 239.24 173.465 235.85 173.805C237.61 176.935 240.47 176.795 243.1 178.605L243.11 178.615ZM238.53 205.325C237.39 204.995 236.56 206.425 235.8 207.465C235.14 208.375 235.45 210.335 235.51 211.865C235.66 215.905 233.34 218.835 234.4 223.035C237.02 217.415 239.57 213.925 243.88 212.335C242.09 199.115 246.91 204.605 243.8 183.725C243.42 181.195 241.64 181.135 240.44 180.035C238.18 177.935 234.2 178.255 233.66 182.525C237.94 192.985 234.67 188.005 236.11 196.925C238.27 198.245 239.74 198.935 240.54 202.135C241.23 204.875 241.92 207.495 239.43 209.665C238.67 208.135 238.86 207.085 238.52 205.315L238.53 205.325ZM258.1 190.495C257.79 194.855 257.29 203.155 257.39 207.315C257.5 212.475 255.7 217.685 253.14 222.195C250.44 226.935 247.99 232.365 244.92 236.495C243.35 238.605 240.85 235.285 240.07 233.585C239.02 231.305 239.62 228.125 240.27 224.325C237.5 226.045 237.86 230.505 238.81 233.855C239.62 236.695 243.15 240.885 245.56 238.095C248.62 234.565 250.61 228.665 253.32 224.515C256.03 220.365 257.13 215.885 258.1 211.285C259.12 206.455 258.94 201.605 258.81 196.435C260.21 191.605 259.94 185.455 258.24 180.165C257.28 184.145 258.33 187.205 258.1 190.485V190.495ZM230.97 191.485C234.1 194.495 232.5 205.455 235.29 203.955C236.65 203.215 238.51 203.015 238.01 200.345C237.05 200.915 235.65 202.915 234.95 202.235C232.69 197.725 232.79 192.775 234.26 187.755C232.64 188.305 233.25 190.895 231.89 190.725L226.53 183.585C227.63 186.885 229.11 189.695 230.98 191.485H230.97ZM229.48 194.205C226.99 192.395 225.02 194.425 223.35 193.055C221.42 191.465 220.3 188.085 217.79 187.985C223.99 197.185 223.5 194.995 229.47 194.205H229.48ZM212.87 235.065C219.75 226.285 217.01 222.085 219.36 213.075C220.83 207.425 221.68 201.805 222.63 195.815C218.51 205.315 218.21 215.705 216.4 225.735C215.73 229.435 212.74 231.495 212.87 235.065Z" fill="#F5CDBE"/>
<path d="M273.21 173.555C271.92 169.905 269.93 180.855 260.46 175.555C259.25 174.875 255.97 176.965 255.55 174.305C254.54 167.935 258.94 162.735 263.11 161.795C264.47 161.485 265.69 158.415 264.66 157.625C273.06 151.345 275.79 140.045 279.09 142.315C279.89 142.865 280.5 145.055 280.42 146.955L279.83 160.575C279.57 166.695 275.74 169.855 273.22 173.585L273.21 173.555Z" fill="#F5CDBE"/>
<path d="M269.7 236.715C268.68 231.985 267.53 227.155 266.8 222.025C266.54 220.205 267.01 217.935 265.23 218.205C265.22 217.905 265.14 217.605 265.14 217.315C266.43 217.285 267.65 216.605 269.05 215.545C279.89 207.275 290.92 213.255 291 217.805C291.04 219.985 290.82 222.615 289.46 224.145C282.48 232.015 274.59 233.125 269.7 236.705V236.715Z" fill="#F5CDBE"/>
<path d="M266.11 184.665C267.97 190.345 266.38 196.985 265.97 203.445L265.16 216.395C263.9 215.065 259.3 228.615 257.42 222.475C256.76 220.305 263.29 217.395 261.53 212.475C260.71 210.205 259.55 209.085 259.37 206.795C259.17 204.315 260.86 203.135 261.26 201.025C262.06 196.775 261.21 192.555 263.04 188.405C263.62 187.085 261.88 185.735 261.75 184.755C262.87 184.945 263.36 186.215 264.29 186.475C265.07 186.695 265.7 185.585 266.12 184.665H266.11Z" fill="#F5CDBE"/>
<path d="M249.43 173.795C249.65 173.335 250.14 173.135 250.34 172.675C249.96 174.605 257.65 175.345 257.47 179.415C253.36 175.235 249.65 176.665 249.42 173.795H249.43Z" fill="#DA9C78"/>
<path d="M177.91 291.005L165.65 269.235C162.53 263.695 159.42 258.985 155.9 253.735C161.59 257.545 164.57 264.695 168.62 270.885C171.49 277.535 176.48 281.745 177.91 290.995V291.005Z" fill="#E16524"/>
<path d="M199.39 244.715C200.63 246.635 199.96 247.705 198.75 246.315C194.81 242.245 189.52 240.295 187.33 233.435C191.21 237.355 194.43 242.085 199.39 244.715Z" fill="#D96F4C"/>
<path d="M212.04 253.325C209.66 253.025 209.65 250.595 211.46 250.935L220.63 246.345C218.61 250.825 214.81 249.925 212.04 253.325Z" fill="#DC8E6E"/>
<path d="M204.39 263.995C202.65 260.105 200.82 257.425 198.63 253.105C201.61 255.095 204.04 258.865 204.39 263.995Z" fill="#D18364"/>
<path d="M238.53 205.325C238.87 207.095 238.68 208.155 239.44 209.675C241.92 207.505 241.24 204.895 240.55 202.145C239.74 198.965 238.27 198.255 236.12 196.935C234.68 188.015 237.95 192.995 233.67 182.535C234.21 178.265 238.18 177.955 240.45 180.045C241.64 181.145 243.43 181.205 243.81 183.735C246.92 204.625 242.1 199.135 243.89 212.345C239.58 213.925 237.03 217.415 234.41 223.045C233.35 218.825 235.67 215.895 235.52 211.875C235.46 210.335 235.16 208.385 235.81 207.475C236.57 206.435 237.4 204.995 238.54 205.335L238.53 205.325Z" fill="#F5CDBE"/>
<path d="M247.39 198.405C247.34 205.815 247.45 212.545 243.36 217.635C241.6 219.825 238.9 221.455 237.86 224.815C237.33 226.515 237.05 228.665 236.12 228.905C234.99 229.195 233.56 229.515 232.56 228.585C225.75 222.245 231.9 210.345 234.37 205.545C234.87 210.545 228.84 217.065 230.75 222.705C231.46 224.785 232.95 228.565 235.23 227.915C237.35 224.345 238.89 220.095 241.91 217.505C248.43 211.915 244.53 200.675 246.68 197.435C247.22 197.175 247.43 197.555 247.39 198.425V198.405Z" fill="#DC7A51"/>
<path d="M258.1 211.285C257.13 215.885 256.04 220.355 253.32 224.515C250.6 228.675 248.61 234.565 245.56 238.095C243.15 240.885 239.61 236.685 238.81 233.855C237.86 230.515 237.5 226.045 240.27 224.325C239.63 228.125 239.03 231.305 240.07 233.585C240.85 235.285 243.35 238.605 244.92 236.495C247.99 232.365 250.44 226.935 253.14 222.195C255.71 217.675 257.5 212.475 257.39 207.315C258.42 206.605 258.65 207.925 258.1 211.275V211.285Z" fill="#DA693B"/>
<path d="M212.87 235.065C212.74 231.485 215.73 229.425 216.4 225.735C218.21 215.705 218.51 205.315 222.63 195.815C221.68 201.805 220.83 207.435 219.36 213.075C217.01 222.085 219.74 226.285 212.87 235.065Z" fill="#DB8259"/>
<path d="M265.24 218.215C265.51 221.675 264.43 223.005 263.32 224.415L251.76 239.005C250.43 240.685 247.9 240.455 247.4 238.245C248.81 237.445 250.79 238.835 251.91 237.315C257.84 229.245 261.77 226.055 265.24 218.215Z" fill="#D56C3A"/>
<path d="M230.97 191.485C230.36 189.815 230.85 189.435 231.88 190.725C233.24 190.895 232.63 188.305 234.25 187.755C232.79 192.775 232.69 197.725 234.94 202.235C235.64 202.915 237.04 200.925 238 200.345C238.5 203.015 236.64 203.225 235.28 203.955C232.5 205.465 234.09 194.495 230.96 191.485H230.97Z" fill="#DC7A51"/>
<path d="M247.39 198.405C247.13 198.105 246.89 197.775 246.68 197.415C246.04 188.875 248.1 185.625 246.57 181.295C245.98 179.635 244.58 178.845 243.11 178.605C242.78 177.725 243.05 177.425 243.82 177.615C251.1 179.935 247.43 191.855 247.39 198.395V198.405Z" fill="#D46E49"/>
<path d="M258.81 196.435C258.94 201.605 259.12 206.445 258.1 211.285C258.07 209.945 258.47 207.975 257.39 207.325C257.3 203.165 257.79 194.855 258.1 190.505C259.42 190.435 259.66 192.425 258.81 196.445L258.81 196.435Z" fill="#E6855C"/>
<path d="M229.48 194.205C223.52 194.995 224 197.185 217.8 187.985C220.3 188.085 221.43 191.465 223.36 193.055C225.02 194.425 226.99 192.405 229.49 194.205H229.48Z" fill="#D78366"/>
<path d="M258.81 196.435C258.76 194.465 259.37 191.765 258.1 190.495C258.34 187.205 257.29 184.145 258.24 180.175C259.94 185.465 260.21 191.605 258.81 196.445L258.81 196.435Z" fill="#DDAB91"/>
<path d="M243.82 177.625C243.56 177.925 243.32 178.245 243.11 178.615C240.48 176.795 237.62 176.935 235.86 173.815C239.24 173.485 241.41 176.855 243.83 177.625H243.82Z" fill="#DB9F88"/>
<path d="M266 182.715C263.59 181.545 261.07 180.865 258.34 178.345C259.28 177.565 265.25 179.975 266 182.715Z" fill="#D99E8B"/>
<path d="M231.88 190.715C231.59 190.675 231.29 191.475 230.97 191.475C229.11 189.685 227.62 186.875 226.52 183.575L231.88 190.715Z" fill="#D29272"/>
<path d="M405.62 85.755C406.25 87.925 405.98 88.255 403.96 87.785C404.74 89.795 404.47 90.345 402.45 90.235C395.19 92.405 391.41 90.235 389.68 100.075C389.25 102.515 386.74 106.625 388.36 108.055C391.01 110.375 392.89 108.025 394.91 106.805C396.82 105.655 400.17 105.375 400.75 102.615L404.08 99.105C405.63 98.555 408.08 95.345 410.1 96.845C418.17 107.455 418.14 126.425 419.76 131.445C422.4 139.635 424.17 148.015 425.09 156.745L426.89 173.895C427.15 176.375 426.29 178.715 424.37 179.895C423.21 173.065 419.2 169.525 415.33 165.705C412.58 164.535 409.75 163.655 406.84 163.055C406.84 162.125 407.27 161.525 408.08 161.185C408.06 159.835 407.8 159.235 407.28 159.415C405.7 161.015 405.26 160.375 406.27 158.315C404.62 158.005 403.57 159.055 402.64 160.445C403.5 162.165 400.93 164.735 399.23 165.555C398.04 165.375 397.04 166.785 396.09 167.275C393.92 167.475 391.7 167.205 389.58 166.675C388.79 167.375 387.97 167.045 387.26 166.555C385.04 166.255 382.49 165.255 380.75 163.865C379.33 163.575 378.7 163.155 379.95 162.095L376.59 160.925C371.47 161.925 369.91 156.835 372.1 152.335C367.99 151.955 369.79 159.615 372.29 161.885L371.88 162.925C374.35 163.625 374.32 164.585 371.8 165.775C369.35 168.655 365.57 169.675 362.37 171.995C360.33 173.485 360.75 177.285 359.27 179.025C356.76 182.005 355.5 184.135 355.89 188.345C356.16 191.185 356.48 193.555 357.93 196.285C358.85 198.015 357.75 200.725 358.59 202.675C359.79 205.475 360.83 207.865 361.53 211.075C360.24 211.915 359.18 212.775 357.75 213.445C357.82 211.765 356.7 210.075 357.07 208.945C355.67 207.955 354.55 206.595 353.72 204.855C352.11 206.925 350.69 207.165 349.44 205.545C348.18 203.975 345.58 203.195 344.64 200.755C344.14 199.445 344.7 196.295 345.27 195.025C345.83 193.365 345.56 192.145 343.73 192.525C341.96 193.365 341.25 194.815 339.71 197.345C337.53 194.395 336.07 191.175 335.67 187.905C333.63 184.595 331.04 182.185 327.65 180.715C324.66 180.265 323.15 178.805 323.15 176.295C323.63 177.695 323.5 178.585 322.78 178.985L320 173.645C318.6 174.185 316.98 172.235 316.24 170.945L311.42 158.595C309.81 154.465 307.6 151.085 303.96 149.175C297.78 145.925 302.37 135.795 303.96 131.585C304.46 130.285 303.53 128.645 304.32 127.435L306.48 120.725C306.41 122.425 305.96 123.185 305.12 123.005C303.02 122.615 304.07 117.845 302.61 118.555C301.75 121.115 299.96 120.205 297.24 115.835C296.52 111.995 295.88 108.145 295.33 104.275C296 101.875 297.56 100.055 299.05 97.765C302.39 92.635 302.47 85.685 305.31 80.265C307.57 75.985 314.29 75.225 318.14 73.545C325.89 70.155 323.92 64.825 327.69 65.965C328.15 66.105 333.23 76.855 343.66 70.685C346.36 70.165 348.98 68.495 351.5 65.675C354.84 65.615 358.15 65.525 361.46 65.405C366.92 67.925 372.05 65.675 375.42 60.285C388.4 58.685 386.97 68.895 398.72 70.985C400.87 80.625 403.93 81.375 405.62 85.745V85.755Z" fill="#F5CDBE"/>
<path d="M412.76 199.295C407.66 204.825 399.81 205.015 393.41 206.475C388.37 207.625 383.57 210.725 378.2 210.405C375.4 210.235 373.24 210.105 370.4 213.395C369.24 208.785 369.11 205.985 367.85 202.925L374.83 200.295C375.01 198.565 376.87 199.005 377.5 200.415C384.58 200.695 391.59 200.335 398.53 199.325C399.54 197.075 402.57 195.435 404.88 194.265C412.67 190.335 416.86 190.085 412.76 199.285V199.295Z" fill="#F5CDBE"/>
<path d="M407.84 182.805C408.97 182.635 411.01 186.325 410.29 187.635C409.05 189.905 404.52 189.775 402.42 188.705L393.57 189.595C391.57 190.725 389.16 191.325 386.33 191.365L385.16 192.335C382.66 192.195 380.62 192.875 379.04 194.385C378.49 196.225 376.71 197.055 373.69 196.875C373.73 198.725 370.85 197.995 369.44 197.525C368.75 196.735 366.83 197.265 366.3 195.945C365.93 195.485 368.48 190.765 368.7 190.555C368.86 190.405 371.85 188.645 372.4 188.355C372.98 188.055 373.62 187.985 374.26 187.935C377.51 186.635 380.88 185.295 384.37 183.935C386.17 181.495 388.16 181.035 390.35 182.535C394.72 181.475 400.22 181.215 404.77 181.865C405.81 181.425 406.92 182.025 407.83 182.795L407.84 182.805Z" fill="#F6F5F5"/>
<path d="M412.76 199.295C413.32 196.965 414.5 194.685 412.5 191.785C407.76 194.305 402.99 196.615 398.54 199.315C391.58 200.285 384.57 200.645 377.51 200.405C374.24 201.225 371.28 203.125 367.86 202.905C369.7 200.655 372.33 200.275 375.06 199.205C372.87 197.525 370.95 199.205 369.47 197.525C370.54 197.405 372.99 198.095 373.73 196.875C376.22 196.005 379.11 196.115 381.61 196.805C382.33 193.955 391 193.985 392 196.695C395.97 196.805 400.09 195.275 403.87 193.445C402.64 189.745 411.53 188.265 412.74 191.295C413.45 189.635 414.22 187.925 415.05 186.175L416.94 186.855C413.32 196.705 415.23 198.745 412.79 199.295H412.76Z" fill="#360602"/>
<path d="M385.54 180.705C387.28 181.685 386.26 182.535 384.96 183.585C381.32 185.135 377.75 186.585 374.28 187.935C373.77 190.125 372.2 191.645 369.73 191.575C369.62 194.335 368.03 195.245 366.32 195.945L364.69 195.815C363.19 195.005 363.63 191.265 364.35 190.045C364.71 189.425 373.84 181.775 374.98 181.065C378.69 178.805 381.56 179.505 385.54 180.715V180.695V180.705Z" fill="#EC3D08"/>
<path d="M410.08 178.285C410.91 179.855 410.82 180.565 409.8 180.415C409.42 181.575 406.49 182.805 405.72 180.695C403.77 181.815 400.71 182.315 399.21 180.555C396.01 180.075 392.75 180.005 389.56 180.585C388.87 181.375 388.1 181.085 387.26 180.585L385.84 179.505C383.12 179.025 382.42 178.275 383.74 177.265C385.17 177.135 386.66 177.085 387.9 176.205C389.27 176.525 390.67 176.875 392.1 177.245L402.91 174.925C404.56 174.565 405.73 173.025 407.43 173.775C408.97 174.455 409.04 176.885 410.08 178.285Z" fill="#F5CDBE"/>
<path d="M383.74 177.265C383.83 177.695 383.97 178.175 384.31 178.405C384.54 178.555 384.9 178.525 385.36 178.535C386.62 178.535 387.16 179.575 387.27 180.585C387.54 182.145 386.93 182.255 386.35 180.705C381.49 178.845 377.27 179.285 373.69 182.045L364.4 190.055L363.37 189.445C362.73 185.225 366.44 183.665 368.65 180.215C370.69 180.375 371.47 178.545 372.91 177.855C374.89 176.905 377.08 177.245 378.62 174.415C379.05 175.675 379.3 176.965 380.3 177.135C381.52 177.345 382.61 177.175 383.74 177.255V177.265Z" fill="#F5CDBE"/>
<path d="M386.35 180.705C386.15 181.485 385.88 181.475 385.55 180.705C382.65 181.175 379.21 179.695 376.16 181.145C372.82 182.725 370.85 186.505 367.66 188.465C365.05 190.065 363.12 193.095 364.69 195.815C361.82 194.705 363.97 193.465 363.37 189.455L375.69 179.705C378.59 177.415 383.5 179.255 386.35 180.715V180.705Z" fill="#5D0C00"/>
<path d="M416.91 186.855C414.5 188.175 415.72 191.015 412.71 191.295L410.88 191.065C411.13 188.965 411.27 186.895 411.31 184.865C410.76 183.435 410.26 181.955 409.81 180.415L410.09 178.285C415.4 185.435 415.01 181.385 416.34 183.465C416.88 184.305 417.26 185.905 416.92 186.845L416.91 186.855Z" fill="#F5CDBE"/>
<path d="M357.05 208.925C356.37 208.405 355.19 208.185 354.56 208.515C353.44 209.105 353.9 210.505 353.45 211.665C352.16 209.315 350.88 207.325 349.43 205.525C351.24 205.685 351.83 203.935 352.98 202.365C354.03 200.935 354.84 203.625 355.32 204.375C356.39 206.035 357.68 207.025 357.04 208.915L357.05 208.925Z" fill="#F5CDBE"/>
<path d="M302.6 118.545C302.89 120.095 301.84 121.165 300.4 122.155C300.08 119.035 297.46 117.985 296.47 115.735C295.57 113.695 296.98 110.665 295.5 108.855C294.02 107.045 294.91 105.675 295.31 104.265C298.77 112.765 295.16 114.155 299.74 117.515C300.13 117.795 300.13 119.095 300.79 119.325C301.41 119.545 302.01 118.825 302.6 118.555V118.545Z" fill="#F5CDBE"/>
<path d="M406.24 158.295L407.25 159.395C407.68 161.215 404.71 162.795 403.27 163.035C402.13 164.505 401.08 165.805 399.2 165.525C400.41 164.005 401.07 161.615 402.61 160.415C403.42 159.015 404.89 157.375 406.24 158.285V158.295Z" fill="#F5CDBE"/>
<path d="M415.32 165.695C411.79 165.275 408.44 163.605 404.85 163.845C403.87 162.285 406.91 160.415 408.07 161.185C407.91 164.615 411.57 161.995 415.33 165.695H415.32Z" fill="#F5CDBE"/>
<path d="M361.45 65.395L350.7 66.805C350.02 66.895 344.92 74.025 343.65 70.665C346.34 69.075 349.15 67.855 350.98 64.515C359.47 67.105 356.08 62.925 361.44 65.395H361.45Z" fill="#F5CDBE"/>
<path d="M373.48 162.955C376.21 162.535 378.63 162.835 380.72 163.845C381.45 164.145 381.45 164.475 380.72 164.815C377.8 164.435 374.69 165.915 371.76 165.745C371.27 166.035 371.03 165.535 371.39 165.115C371.75 164.685 372.15 164.525 372.27 164.225C372.45 163.755 372.1 163.255 371.84 162.905C371.81 161.125 372.86 161.485 373.47 162.955H373.48Z" fill="#F5CDBE"/>
<path d="M335.65 187.895C334.35 188.175 334.06 186.215 333.05 185.345L327.63 180.695C330.38 180.755 335.18 184.115 335.65 187.885V187.895Z" fill="#F5CDBE"/>
<path d="M403.94 87.785C404.72 86.475 406.95 89.725 406.91 89.945C406.89 90.045 405.53 89.465 407.3 89.165C407.62 89.795 408.38 89.695 408.21 90.625C408.01 91.755 407.7 92.055 406.42 91.835C404.81 91.565 403.81 90.205 402.44 90.235C402.66 89.235 403.05 88.215 403.95 87.785H403.94Z" fill="#F5CDBE"/>
<path d="M408.06 161.165C407.36 162.205 404.98 162.015 404.84 163.825C404.33 163.785 403.8 163.135 403.27 163.035C404.48 161.465 406.14 161.085 407.25 159.395C408.25 157.875 409 156.695 409.17 153.935C410.39 156.365 409.33 159.105 408.05 161.175L408.06 161.165Z" fill="#AE3302"/>
<path d="M327.63 180.705C326.33 180.675 323.49 180.385 322.76 178.975C322.94 176.745 322.33 174.455 323.15 171.755C324.4 173.455 322.84 175.825 323.93 177.775C324.77 179.285 326.52 179.745 327.64 180.705H327.63Z" fill="#F5CDBE"/>
<path d="M319.99 173.645C319.11 174.415 317.85 174.715 317.22 174.085C316.23 173.095 316.58 171.855 316.23 170.955C318.6 171.105 319.05 171.835 319.99 173.655V173.645Z" fill="#F5CDBE"/>
<path d="M345.26 195.015C345.29 194.475 345.42 193.745 345.14 193.015C344.97 192.585 344.22 192.525 343.72 192.515C345.73 191.565 346.54 188.885 347.39 186.975C347.28 189.775 346.23 192.925 345.27 195.015H345.26Z" fill="#F5CDBE"/>
<path d="M387.22 166.525C384.85 167.945 382.74 165.875 380.72 164.815C380.63 164.535 380.87 164.055 380.72 163.845C382.99 163.985 385.49 164.865 387.23 166.535L387.22 166.525Z" fill="#99360A"/>
<path d="M396.06 167.255C393.89 168.375 391.12 168.915 389.55 166.655C391.37 165.025 394.17 166.685 396.06 167.255Z" fill="#F5CDBE"/>
<path d="M304.31 127.425C304.99 126.385 303.8 123.965 305.11 122.985C305.94 122.375 305.59 121.125 306.48 120.245C307.23 123.285 305.85 125.675 304.31 127.435V127.425Z" fill="#F5CDBE"/>
<path d="M407.3 89.155C407.22 89.605 407.52 90.155 406.96 91.145C405.81 90.035 404.76 89.035 403.95 87.785C404.36 86.975 404.88 86.225 405.61 85.755C406.06 86.925 406.73 88.065 407.29 89.155H407.3Z" fill="#F5CDBE"/>
<path d="M404.06 99.095C403.81 101.015 402.52 102.525 400.73 102.605C401.25 100.155 402.35 99.715 404.06 99.095Z" fill="#737373"/>
<path d="M392.1 177.245C391.92 178.135 391.85 179.125 390.76 179.045C388.76 178.905 390.54 176.515 387.9 176.205C388.21 175.455 389.08 175.025 389.93 175.775C390.74 176.485 391.38 177.025 392.1 177.245Z" fill="#F5CDBE"/>
<path d="M347.3 109.165C332.53 112.075 335.93 111.155 325 118.175C323.92 118.865 323.32 119.975 322.08 119.005C321.38 118.455 320.7 117.635 320.9 116.375C321.42 113.145 324.41 112.495 325.85 110.525C328.29 107.195 329.86 105.655 334.14 105.935C341.16 101.255 346.82 93.735 356.5 97.395C359.68 94.915 365.34 99.605 365.89 101.745C366.23 103.035 365.98 106.585 364.79 106.875C361.16 106.355 349.15 106.455 347.3 109.175V109.165Z" fill="#3D3D3D"/>
<path d="M401.68 145.185L397.7 138.005C395.6 132.515 382.47 119.075 386.21 113.435C387.39 117.385 387.67 120.505 390 123.405C396.88 131.955 402.64 141.065 407.3 151.295C407.74 152.235 406.9 153.645 406.31 153.475C404.64 152.975 404.6 147.485 401.68 145.205V145.185Z" fill="#530A00"/>
<path d="M404.94 113.235C407.91 113.975 410.78 114.235 412.73 116.585L412.81 119.325C410.96 120.055 408.72 120.185 406.1 119.685L400.82 120.105C398.86 120.015 397.29 120.335 396 120.415L395.66 119.145C398.87 116.935 402.2 115.555 405.64 115.005C401.41 114.435 399.57 112.795 404.93 113.235H404.94Z" fill="#540E00"/>
<path d="M358.2 128.315C353.41 128.795 348.43 129.445 343.6 130.985C342.88 130.945 342.14 131.175 341.41 131.075C340.1 131.685 339.89 131.415 340.81 130.175C343.09 127.695 346.03 125.985 349.62 125.025C352.49 126.115 355.95 126.075 358.19 128.315H358.2Z" fill="#5B1201"/>
<path d="M346.87 124.525L347.06 125.845C344.49 126.775 342.4 128.225 340.81 130.185L341.41 131.085L334.22 135.375C337.52 128.975 342.96 125.045 348.91 121.445C349.18 123.445 347.75 123.735 346.88 124.525H346.87Z" fill="#831F01"/>
<path d="M357.39 89.255C358.75 90.615 361.63 90.165 362.34 93.525C360.89 92.385 359.43 92.375 358.19 91.915C353.36 91.325 348.53 91.325 343.71 91.915C342.27 92.195 341.72 91.525 342.95 90.395C344.56 90.515 345.9 89.245 346.92 89.245C350.22 88.465 354.06 88.485 357.38 89.245L357.39 89.255Z" fill="#8B1F00"/>
<path d="M372.07 152.295C370.52 155.615 370.5 159.425 374.04 160.735L373.56 161.915C375.12 161.885 375.07 162.575 373.49 162.935L371.86 162.885C370.31 160.995 368.99 158.645 368.77 156.135C368.54 153.495 369.65 150.815 371.75 149.245C372.92 150.105 371.99 151.345 372.09 152.285L372.07 152.295Z" fill="#500A00"/>
<path d="M405.65 114.995C406 115.335 407.27 114.545 407.23 115.615C403.12 116.955 398.77 117.345 396.01 120.405C394.66 120.485 393.73 121.505 393.06 120.225C395.55 115.635 401.1 112.985 405.66 114.985L405.65 114.995Z" fill="#F5CDBE"/>
<path d="M332.46 85.705L328.68 87.775C323.65 90.535 319.27 94.375 313.54 95.185C316.65 92.215 320.12 91.505 323.34 89.735C326.28 88.115 328.83 86.095 331.66 84.815C332.38 84.405 332.62 84.745 332.46 85.705Z" fill="#8F2200"/>
<path d="M384.58 87.345C386.69 83.565 396.28 85.515 400.47 84.265C399.14 88.485 389.95 85.365 384.58 87.345Z" fill="#AA3400"/>
<path d="M379.91 162.055C378.99 163.645 374.81 163.325 373.55 161.925C372.42 160.505 371.36 159.015 370.74 157.415C369.97 155.415 371 153.845 372.06 152.295C372.49 156.355 369.7 155.445 372.79 159.695C374.39 161.895 375.1 156.985 379.9 162.065L379.91 162.055Z" fill="#F5CDBE"/>
<path d="M404.94 113.235C404.11 113.375 403.12 112.715 402.37 113.795C403.87 114.265 404.84 114.225 405.65 115.005C400.79 114.335 396.3 116.205 393.05 120.245C393.47 116.425 397.44 115.445 400.37 113.685C402.9 112.155 403.06 112.765 404.95 113.235L404.94 113.235Z" fill="#992B01"/>
<path d="M394.5 76.715C384.09 73.845 383.66 80.135 380.96 77.565C387.5 74.455 389.24 72.705 394.5 76.715Z" fill="#AB3300"/>
<path d="M358.2 128.315C358.91 129.025 360.08 128.795 360.68 130.155C349.33 127.495 350.45 131.415 343.61 130.995C348.09 128.615 353.18 128.005 358.21 128.325L358.2 128.315Z" fill="#F5CDBE"/>
<path d="M334.2 97.235C330.66 100.555 327.4 103.255 322.99 106.195C325.32 101.935 329.54 99.035 334.2 97.235Z" fill="#8A1E00"/>
<path d="M332.46 85.705C332.22 85.375 331.95 85.085 331.66 84.815C335.61 82.385 339.91 80.065 344.62 80.665C340.32 82.085 336.36 83.555 332.46 85.705Z" fill="#B03300"/>
<path d="M346.87 124.525C346.73 125.495 347.42 125.395 347.94 125.455C348.46 125.505 349.16 124.855 349.62 125.035C352.95 125.055 340.77 129.725 340.81 130.185C340.41 127.135 344.96 126.265 346.87 124.535V124.525Z" fill="#F5CDBE"/>
<path d="M358.2 91.915C355.19 92.115 352.05 91.525 348.71 92.115C346.84 92.445 344.9 93.695 343.72 91.915C348.38 90.725 353.69 90.235 358.2 91.915Z" fill="#F5CDBE"/>
<path d="M362.05 135.135C357.76 135.135 353.88 136.175 349.21 138.135C352.3 134.265 356.86 133.815 362.05 135.135Z" fill="#D34B00"/>
<path d="M412.81 119.315C412.84 120.505 412.01 120.965 411.6 121.085C411 121.255 410.33 120.525 409.55 120.485L400.83 120.095C404.14 118.515 409.08 119.035 412.81 119.315Z" fill="#F5CDBE"/>
<path d="M388.01 159.045C384.99 159.735 381.79 159.955 379.04 157.945C382.24 157.335 385.07 157.035 388.01 159.045Z" fill="#5A0E00"/>
<path d="M379.91 162.055C380.3 162.425 380.39 163.375 380.71 163.825C378.26 163.665 375.48 164.645 373.47 162.935L373.54 161.915L379.9 162.045L379.91 162.055Z" fill="#881A00"/>
<path d="M364.52 83.055C360.52 82.525 358.73 80.065 355.69 79.955C359.33 78.615 362.36 80.645 364.52 83.055Z" fill="#A82A00"/>
<path d="M357.39 89.255H346.93C344.56 87.945 359.75 87.945 357.39 89.255Z" fill="#F5CDBE"/>
<path d="M401.68 145.185C399.36 143.365 398.34 140.435 397.7 138.005C399.94 139.515 401.08 142.435 401.68 145.185Z" fill="#F5CDBE"/>
<path d="M356.59 173.675C357.26 171.305 357.6 169.175 359.53 167.295C359.91 169.635 358.78 172.255 356.59 173.675Z" fill="#CC4400"/>
<path d="M406.24 158.295C405.23 159.305 403.66 159.615 402.61 160.425C402.73 158.955 403.49 157.915 405.07 156.825C405.75 156.935 406.04 157.735 406.24 158.305V158.295Z" fill="#8A2800"/>
<path d="M380.6 93.665C377.23 93.405 376.72 89.235 378.04 86.465C378.1 89.495 378.65 91.215 380.6 93.665Z" fill="#A73301"/>
<path d="M398.53 199.315C395.96 200.885 393.33 201.215 389.49 201.175L378.37 201.055C377.81 201.055 377.4 200.855 377.49 200.405L381.54 199.395L398.52 199.315H398.53Z" fill="#F5CDBE"/>
<path d="M411.3 184.865C412.07 184.925 414.09 185.255 413.49 186.615C412.7 188.395 411.81 189.815 412.71 191.295C409.86 191.575 406.26 191.325 403.84 193.445C403.22 193.905 402.78 193.905 402.52 193.415L391.97 195.815C392.67 196.065 392.66 196.365 391.97 196.705L381.58 196.815C379.01 197.225 378.23 196.665 379.22 195.135C379.98 193.055 381.84 192.175 384.8 192.485L386.34 191.385C388.79 190.945 391.21 190.655 393.58 190.495C396.15 189.175 399.1 188.575 402.43 188.725C404.21 187.495 406.56 186.985 408.71 187.925C409.24 185.705 408.45 184.305 407.84 182.845C407.54 178.875 411.42 181.795 411.3 184.905V184.865Z" fill="#EE3F09"/>
<path d="M389.56 180.585C392.75 179.995 396.01 180.065 399.21 180.555C401.39 180.345 403.55 180.445 405.72 180.695C406.86 182.115 406.36 182.685 404.79 181.875C402.89 183.515 400.74 182.405 398.43 182.465C395.45 182.545 392.9 184.215 390.37 182.535C387.64 182.145 386.6 181.495 387.27 180.575C388.03 180.465 388.81 180.535 389.57 180.575L389.56 180.585Z" fill="#3F1410"/>
<path d="M387.26 180.585C387.89 181.975 389.58 181.355 390.37 182.545C387.97 180.945 386.33 184.025 384.66 184.685C382.34 185.595 380.45 185.285 378.58 187.495C377.85 188.355 375.1 186.705 374.29 187.945C374.65 186.395 375.91 186.625 377.49 185.985L381.56 184.335C383.63 183.485 385.57 183.025 385.56 180.715C385.82 180.675 386.1 180.755 386.36 180.715L387.28 180.595L387.26 180.585Z" fill="#8F4535"/>
<path d="M379.23 195.115C379.71 196.085 380.65 196.555 381.59 196.795C379.11 197.685 375.94 198.655 373.71 196.865C374.63 194.475 377.1 195.425 379.06 194.375C379.57 194.395 379.6 194.655 379.23 195.105V195.115Z" fill="#A34640"/>
<path d="M409.8 180.415C410.7 180.455 411.48 181.175 411.83 182.295C412.06 183.015 411.68 184.035 411.32 184.865C408.27 184.625 410.68 178.915 407.86 182.805C407.49 183.325 406.6 183.515 406.14 183.335C405.61 183.125 404.49 182.645 404.8 181.865C405.18 181.535 405.59 181.235 405.73 180.685C407.07 180.835 408.46 180.325 409.81 180.405L409.8 180.415Z" fill="#951C00"/>
<path d="M402.43 188.695C399.8 190.515 396.36 189.055 393.58 190.465C392.88 190.215 392.89 189.915 393.58 189.575C396.35 188.445 399.7 187.725 402.43 188.685V188.695Z" fill="#5E1B0E"/>
<path d="M386.35 191.365C385.06 194.985 382.14 191.165 379.23 195.115C379.13 194.905 379.15 194.605 379.06 194.385C379.56 190.925 383.64 192.965 386.35 191.365Z" fill="#66160C"/>
<path d="M393.58 190.475C391.37 191.605 388.9 191.515 386.34 191.365C388.66 190.005 391.1 190.595 393.58 189.595V190.485V190.475Z" fill="#5B1B16"/>
<path d="M403.85 193.435C401.82 195.215 400.17 196.575 396.8 196.745C395.14 196.825 393.15 198.585 391.98 196.685V195.795C395.49 194.835 399 194.045 402.53 193.395C402.93 193.545 403.43 193.355 403.85 193.425V193.435Z" fill="#C8BCBA"/>
<path d="M399.21 180.555C396 180.845 392.77 180.755 389.56 180.585C392.39 179.245 396.35 179.305 399.21 180.555Z" fill="#F5CDBE"/>
<path d="M402.53 193.415C399.17 194.375 395.82 196.405 391.98 195.815C394.9 194.645 399.63 192.325 402.53 193.415Z" fill="#9B2B11"/>
</svg>
